<svg width="18" height="15" viewBox="0 0 18 15" fill="none" xmlns="http://www.w3.org/2000/svg">
<path d="M16.0312 7.1875C16.0312 10.9327 12.9952 13.9688 9.25 13.9688C5.50481 13.9688 2.46875 10.9327 2.46875 7.1875C2.46875 3.44231 5.50481 0.40625 9.25 0.40625C12.9952 0.40625 16.0312 3.44231 16.0312 7.1875ZM8.46562 10.7781L13.4969 5.74687C13.6677 5.57602 13.6677 5.299 13.4969 5.12816L12.8782 4.50945C12.7073 4.33858 12.4303 4.33858 12.2594 4.50945L8.15625 8.6126L6.24057 6.69693C6.06973 6.52608 5.79271 6.52608 5.62184 6.69693L5.00313 7.31563C4.83229 7.48648 4.83229 7.7635 5.00313 7.93434L7.84688 10.7781C8.01775 10.949 8.29475 10.949 8.46562 10.7781Z" fill="#38B2AC"/>
</svg>
