<svg width="28" height="22" viewBox="0 0 28 22" fill="none" xmlns="http://www.w3.org/2000/svg">
<path d="M22.4873 6.31995C22.5008 6.50941 22.5008 6.6989 22.5008 6.88836C22.5008 12.6669 18.1026 19.3252 10.0639 19.3252C7.58738 19.3252 5.28678 18.6079 3.35155 17.363C3.70342 17.4035 4.04171 17.4171 4.40712 17.4171C6.45058 17.4171 8.3317 16.7269 9.83387 15.5495C7.91218 15.5089 6.30174 14.2503 5.74688 12.5181C6.01756 12.5587 6.2882 12.5857 6.57242 12.5857C6.96487 12.5857 7.35736 12.5316 7.72272 12.4369C5.71984 12.0309 4.21763 10.2716 4.21763 8.14692V8.09281C4.79953 8.41761 5.47623 8.6206 6.19343 8.64763C5.01606 7.8627 4.2447 6.52295 4.2447 5.00723C4.2447 4.19527 4.46119 3.45095 4.84014 2.80136C6.9919 5.45383 10.2263 7.18603 13.8531 7.37553C13.7855 7.05073 13.7449 6.71244 13.7449 6.37411C13.7449 3.9652 15.6936 2.00293 18.116 2.00293C19.3746 2.00293 20.5114 2.53072 21.3098 3.3833C22.2977 3.19385 23.245 2.82844 24.0841 2.32773C23.7593 3.34273 23.0691 4.19531 22.1624 4.73659C23.0421 4.64191 23.8947 4.39826 24.6796 4.05997C24.0842 4.92605 23.3399 5.6974 22.4873 6.31995Z" fill="white"/>
</svg>
