<svg width="154" height="203" viewBox="0 0 154 203" fill="none" xmlns="http://www.w3.org/2000/svg">
<path d="M123.481 5.53528H30.519C13.7544 5.53528 0.164062 19.1246 0.164062 35.888V166.784C0.164062 183.547 13.7544 197.137 30.519 197.137H123.481C140.246 197.137 153.836 183.547 153.836 166.784V35.888C153.836 19.1246 140.246 5.53528 123.481 5.53528Z" fill="#D6A336"/>
<path fill-rule="evenodd" clip-rule="evenodd" d="M87.9126 42.4507L86.9963 41.7839L85.6626 43.6174L86.5798 44.2842L92.2145 48.3818L93.1308 49.0487L94.4645 47.2152L93.5482 46.5484L87.9126 42.4507ZM68.3394 43.6174L67.423 44.2842L61.7884 48.3818L60.8711 49.0477L59.5383 47.2152L60.4547 46.5484L66.0893 42.4507L67.0056 41.7839L68.3394 43.6174ZM63.3991 62.199C63.3991 54.6867 69.4891 48.5991 77 48.5991C84.5129 48.5991 90.6019 54.6876 90.6019 62.198C90.6019 69.7093 84.5119 75.7979 77 75.7979C69.4891 75.7979 63.3991 69.7093 63.3991 62.199ZM77 46.3311C68.2369 46.3311 61.1329 53.4346 61.1329 62.1971C61.1329 70.9604 68.2369 78.0639 77 78.0639C85.7641 78.0639 92.8681 70.9595 92.8681 62.1971C92.8681 53.4346 85.7641 46.3311 77 46.3311ZM77 54.2674V53.1339H74.7329V63.3334L75.8674 64.4669H83.8014V62.1999H77V54.2674Z" fill="#061492"/>
<path d="M60.2242 122.861C65.0297 122.861 68.3252 119.597 68.3252 115.971C68.3252 113.19 66.8738 110.953 64.3344 109.926C66.1481 108.958 67.2058 107.236 67.2058 105.241C67.2058 101.857 64.3344 98.9855 60.2242 98.9855C56.1139 98.9855 53.2425 101.857 53.2425 105.241C53.2425 107.236 54.3002 108.958 56.1139 109.926C53.5745 110.953 52.1242 113.19 52.1242 115.971C52.1242 119.597 55.4177 122.861 60.2242 122.861ZM54.6028 115.971C54.6028 113.492 56.9601 111.135 60.2242 111.135C63.4883 111.135 65.8465 113.492 65.8465 115.971C65.8465 118.177 63.6097 120.413 60.2242 120.413C56.8387 120.413 54.6028 118.177 54.6028 115.971ZM55.6301 104.999C55.6301 103.156 57.3224 101.464 60.2242 101.464C63.1259 101.464 64.8182 103.156 64.8182 104.999C64.8182 107.024 62.9751 108.868 60.2242 108.868C57.4733 108.868 55.6301 107.024 55.6301 104.999ZM71.9061 122.861C72.9647 122.861 73.7501 121.984 73.7501 120.987C73.7501 119.959 72.9647 119.174 71.9061 119.174C70.9101 119.174 70.063 119.959 70.063 120.987C70.063 121.984 70.9082 122.861 71.9061 122.861ZM76.6434 122.407H79.3933L88.4306 101.282V99.3782H73.2578V101.766H85.6199L76.6434 122.407ZM95.7954 122.861C99.8459 122.861 102.384 121.108 102.384 118.328C102.384 116.03 100.782 114.369 97.9108 113.643L94.9493 112.888C92.6821 112.313 91.4129 111.347 91.4129 110.137C91.4129 108.475 92.8937 107.417 95.2813 107.417C97.3672 107.417 99.2711 108.777 99.513 110.5H102.112C101.78 107.659 98.8784 105.423 95.4928 105.423C91.6245 105.423 89.1762 107.266 89.1762 110.198C89.1762 112.313 90.8988 113.915 93.9514 114.671L96.8835 115.396C99.1506 115.971 100.148 116.847 100.148 118.116C100.148 119.808 98.5454 120.836 95.9766 120.836C93.4382 120.836 91.5031 119.446 91.2621 117.482H88.6924C88.9343 120.654 91.8664 122.861 95.7954 122.861ZM33.6247 156.312H35.8283V147.894H39.5819V145.95H29.8436V147.894H33.6247V156.312ZM40.5153 156.312H42.5965V148.806H40.5153V156.312ZM40.3113 146.997C40.3113 147.636 40.8416 148.125 41.5625 148.125C42.2692 148.125 42.8137 147.636 42.8137 146.997C42.8137 146.357 42.2692 145.895 41.5616 145.895C40.8407 145.895 40.3113 146.357 40.3113 146.997ZM54.397 152.287V156.312H56.4915V152.205C56.4915 149.962 55.4034 148.602 53.5812 148.602C52.3708 148.602 51.4459 149.213 50.9972 150.247C50.5343 149.2 49.6635 148.602 48.4939 148.602C47.569 148.602 46.8215 148.982 46.3311 149.649V148.806H44.2508V156.312H46.3321V152.382C46.3321 151.022 46.8481 150.37 47.9096 150.37C48.8487 150.37 49.3922 151.076 49.3922 152.287V156.312H51.3501V152.382C51.3501 151.076 51.8946 150.37 52.8868 150.37C53.8392 150.37 54.397 151.076 54.397 152.287ZM61.7391 156.517C63.8601 156.517 65.3703 155.238 65.4386 153.702H63.3574C63.2075 154.327 62.5549 154.749 61.7524 154.749C60.6776 154.749 60.025 154.136 59.9026 152.994H65.4927V152.75C65.4927 149.703 63.6021 148.602 61.6433 148.602C59.1959 148.602 57.8081 150.396 57.8081 152.559C57.8081 154.966 59.2765 156.517 61.7391 156.517ZM59.9842 151.675C60.2289 150.846 60.8142 150.315 61.6442 150.315C62.5141 150.315 63.1259 150.859 63.3166 151.675H59.9842ZM73.7445 156.517C74.4246 156.517 75.1313 156.245 75.4576 155.878V154.368C75.1863 154.612 74.8192 154.776 74.4236 154.776C73.826 154.776 73.5813 154.477 73.5813 153.797V150.546H75.4576V148.806H73.5813V146.901H71.5001V148.806H70.3305V150.546H71.5001V154.177C71.5001 155.66 72.3159 156.517 73.7445 156.517ZM80.119 156.517C82.5265 156.517 84.1183 154.816 84.1183 152.559C84.1183 150.192 82.4449 148.602 80.119 148.602C77.7124 148.602 76.1207 150.315 76.1207 152.559C76.1207 154.925 77.7807 156.517 80.119 156.517ZM78.1877 152.559C78.1877 151.267 78.9636 150.37 80.119 150.37C81.2621 150.37 82.0503 151.267 82.0503 152.559C82.0503 153.865 81.2753 154.749 80.119 154.749C78.9636 154.749 78.1877 153.878 78.1877 152.559ZM94.566 156.517C97.1092 156.517 99.0681 155.007 99.4209 152.804H97.0817C96.7962 153.878 95.8305 154.558 94.566 154.558C92.9335 154.558 91.6956 153.185 91.6956 151.131C91.6956 149.104 92.906 147.703 94.566 147.703C95.8438 147.703 96.7962 148.357 97.0542 149.417H99.4209C99.0813 147.241 97.1225 145.746 94.566 145.746C91.3427 145.746 89.3972 148.139 89.3972 151.131C89.3972 154.354 91.4784 156.517 94.566 156.517ZM100.457 156.312H102.538V145.95H100.457V156.312ZM104.192 156.312H106.274V148.806H104.192V156.312ZM103.988 146.997C103.988 147.636 104.519 148.125 105.24 148.125C105.947 148.125 106.491 147.636 106.491 146.997C106.491 146.357 105.947 145.895 105.24 145.895C104.519 145.895 103.988 146.357 103.988 146.997ZM111.559 156.517C113.573 156.517 115.055 155.265 115.259 153.538H113.164C113.028 154.286 112.389 154.749 111.559 154.749C110.499 154.749 109.696 153.892 109.696 152.559C109.696 151.239 110.471 150.37 111.559 150.37C112.362 150.37 113.015 150.818 113.151 151.553H115.259C115.041 149.784 113.518 148.602 111.559 148.602C109.125 148.602 107.629 150.396 107.629 152.559C107.629 154.885 109.247 156.517 111.559 156.517ZM116.366 156.312H118.447V154.368L119.643 153.171L121.861 156.312H124.227L120.922 151.893L124.091 148.806H121.452L118.447 151.784V145.95H116.366V156.312Z" fill="#061492"/>
</svg>
