<svg width="308" height="203" viewBox="0 0 308 203" fill="none" xmlns="http://www.w3.org/2000/svg">
<path d="M277.042 5.53906H30.3955C13.6301 5.53906 0.0390625 19.1301 0.0390625 35.8955V166.808C0.0390625 183.573 13.6301 197.164 30.3955 197.164H277.042C293.807 197.164 307.398 183.573 307.398 166.808V35.8955C307.398 19.1301 293.807 5.53906 277.042 5.53906Z" fill="#780016"/>
<path opacity="0.1" d="M52.1383 126.568C52.1383 122.072 48.4933 118.427 43.9971 118.427C39.5008 118.427 35.8558 122.072 35.8558 126.568V137.796C35.8558 142.293 39.5008 145.938 43.9971 145.938C48.4933 145.938 52.1383 142.293 52.1383 137.796V126.568Z" fill="#E9C0E9"/>
<path opacity="0.2" d="M71.2667 103.801C71.2667 99.3046 67.6217 95.6597 63.1255 95.6597C58.6292 95.6597 54.9843 99.3046 54.9843 103.801V137.796C54.9843 142.293 58.6292 145.938 63.1255 145.938C67.6217 145.938 71.2667 142.293 71.2667 137.796V103.801Z" fill="#E9C0E9"/>
<path opacity="0.4" d="M90.395 112.339C90.395 107.842 86.75 104.198 82.2538 104.198C77.7575 104.198 74.1125 107.842 74.1125 112.339V137.796C74.1125 142.293 77.7575 145.938 82.2538 145.938C86.75 145.938 90.395 142.293 90.395 137.796V112.339Z" fill="#E9C0E9"/>
<path opacity="0.6" d="M109.523 80.0849C109.523 75.5887 105.878 71.9437 101.382 71.9437C96.8859 71.9437 93.241 75.5887 93.241 80.0849V137.796C93.241 142.293 96.8859 145.938 101.382 145.938C105.878 145.938 109.523 142.293 109.523 137.796V80.0849Z" fill="#E9C0E9"/>
<path opacity="0.8" d="M128.652 91.4686C128.652 86.9723 125.007 83.3274 120.51 83.3274C116.014 83.3274 112.369 86.9723 112.369 91.4686V137.796C112.369 142.293 116.014 145.938 120.51 145.938C125.007 145.938 128.652 142.293 128.652 137.796V91.4686Z" fill="#E9C0E9"/>
<path d="M147.78 62.0609C147.78 57.5646 144.135 53.9197 139.639 53.9197C135.143 53.9197 131.498 57.5646 131.498 62.0609V137.796C131.498 142.293 135.143 145.938 139.639 145.938C144.135 145.938 147.78 142.293 147.78 137.796V62.0609Z" fill="#E9C0E9"/>
<path d="M194.39 81.9196H204.626V86.844H207.074V81.9206H210.625V79.5613H207.074V72.8449H204.626V79.5613H197.135L204.03 64.1004H201.284L194.39 79.8592V81.9196ZM221.863 87.3221C226.728 87.3221 230.1 84.5758 230.1 80.6665C230.1 77.6213 228.608 75.5922 225.892 74.8466C227.832 73.9804 229.026 72.0708 229.026 69.6831C229.026 66.1608 226.071 63.6536 221.863 63.6536C217.714 63.6536 214.818 65.7728 214.43 69.2354H216.908C217.326 67.1759 219.266 65.8923 221.863 65.8923C224.608 65.8923 226.519 67.4443 226.519 69.6831C226.519 72.16 224.071 73.8913 220.58 73.8913V76.0105C225.116 76.0105 227.623 77.6811 227.623 80.6665C227.623 83.2335 225.265 85.0539 221.863 85.0539C218.818 85.0539 216.64 83.5313 216.221 81.0544H213.685C214.013 84.8746 217.147 87.3221 221.863 87.3221ZM233.305 83.8302V86.844H248.913V84.4866H236.706C245.362 78.9655 248.795 75.2042 248.795 70.9069C248.795 66.638 245.63 63.6536 241.124 63.6536C236.766 63.6536 233.483 66.5782 233.155 70.757H235.662C235.841 67.8921 238.079 65.8923 241.094 65.8923C244.168 65.8923 246.317 67.9509 246.317 70.9069C246.317 74.4282 243.064 77.7418 233.305 83.8302ZM206.324 121.55H208.486V114.123L213.08 121.55H215.847V111.316H213.684V118.851L209.077 111.316H206.324V121.55ZM221.003 121.752C223.097 121.752 224.588 120.489 224.656 118.972H222.601C222.453 119.589 221.808 120.006 221.016 120.006C219.954 120.006 219.31 119.401 219.189 118.273H224.709V118.031C224.709 115.023 222.842 113.935 220.909 113.935C218.491 113.935 217.121 115.708 217.121 117.844C217.121 120.221 218.571 121.752 221.003 121.752ZM219.269 116.971C219.511 116.151 220.089 115.628 220.909 115.628C221.768 115.628 222.372 116.165 222.56 116.971H219.269ZM227.505 121.55H230.03L231.52 116.191L232.998 121.55H235.496L237.847 114.136H235.872L234.193 119.75L232.635 114.136H230.406L228.835 119.737L227.155 114.136H225.181L227.505 121.55ZM184.189 140.725C186.888 140.725 188.499 139.61 188.499 137.743C188.499 136.158 187.493 135.244 185.518 134.788L183.812 134.372C182.698 134.103 182.228 133.754 182.228 133.176C182.228 132.424 182.979 132.075 183.906 132.075C184.994 132.075 185.827 132.653 185.894 133.471H188.258C188.244 131.685 186.405 130.088 184.014 130.088C181.609 130.088 179.904 131.336 179.904 133.109C179.904 134.721 180.791 135.608 183.033 136.051L184.619 136.373C186.028 136.655 186.27 137.098 186.27 137.649C186.27 138.374 185.545 138.858 184.323 138.858C183.02 138.858 182.161 138.199 182.133 137.179H179.729C179.622 139.327 181.382 140.725 184.189 140.725ZM191.705 137.085V133.109H189.65V137.165C189.65 139.382 190.792 140.725 192.672 140.725C193.652 140.725 194.445 140.348 194.969 139.691V140.523H197.024V133.109H194.969V136.991C194.969 138.28 194.391 138.978 193.33 138.978C192.309 138.978 191.705 138.28 191.705 137.085ZM203.019 140.725C205.074 140.725 206.417 139.1 206.417 136.816C206.417 134.56 205.115 132.908 203.019 132.908C202.025 132.908 201.206 133.311 200.629 134.009V130.289H198.574V140.523H200.629V139.623C201.192 140.308 202.012 140.725 203.019 140.725ZM200.629 136.816C200.629 135.514 201.381 134.64 202.482 134.64C203.584 134.64 204.335 135.514 204.335 136.816C204.335 138.119 203.584 138.978 202.482 138.978C201.381 138.978 200.629 138.119 200.629 136.816ZM210.994 140.725C212.996 140.725 214.299 139.838 214.299 138.481C214.299 137.3 213.493 136.588 212.002 136.252L210.767 135.957C209.974 135.769 209.705 135.567 209.705 135.231C209.705 134.828 210.149 134.546 210.793 134.546C211.585 134.546 212.137 135.004 212.11 135.554H214.124C214.191 134.077 212.754 132.908 210.874 132.908C208.981 132.908 207.718 133.822 207.718 135.178C207.718 136.346 208.51 137.098 210.108 137.407L211.277 137.635C212.231 137.837 212.365 138.079 212.365 138.402C212.365 138.831 211.868 139.14 211.089 139.14C210.202 139.14 209.598 138.643 209.652 137.971H207.596C207.436 139.569 208.859 140.725 210.994 140.725ZM219.033 140.725C221.022 140.725 222.485 139.489 222.686 137.783H220.618C220.484 138.522 219.853 138.978 219.033 138.978C217.986 138.978 217.193 138.132 217.193 136.816C217.193 135.514 217.958 134.653 219.033 134.653C219.825 134.653 220.47 135.097 220.605 135.822H222.686C222.472 134.077 220.968 132.908 219.033 132.908C216.629 132.908 215.151 134.681 215.151 136.816C215.151 139.113 216.75 140.725 219.033 140.725ZM223.806 140.523H225.861V137.3C225.861 135.648 226.491 134.775 227.808 134.775C228.144 134.775 228.6 134.895 228.816 135.07V133.122C228.587 132.989 228.332 132.908 227.861 132.908C227.028 132.908 226.317 133.364 225.861 134.117V133.109H223.806V140.523ZM229.881 140.523H231.937V133.109H229.881V140.523ZM229.68 131.323C229.68 131.955 230.203 132.437 230.916 132.437C231.614 132.437 232.151 131.955 232.151 131.323C232.151 130.692 231.614 130.235 230.916 130.235C230.203 130.235 229.68 130.692 229.68 131.323ZM238.016 140.725C240.07 140.725 241.414 139.1 241.414 136.816C241.414 134.56 240.111 132.908 238.016 132.908C237.022 132.908 236.203 133.311 235.625 134.009V130.289H233.57V140.523H235.625V139.623C236.189 140.308 237.008 140.725 238.016 140.725ZM235.625 136.816C235.625 135.514 236.377 134.64 237.479 134.64C238.58 134.64 239.332 135.514 239.332 136.816C239.332 138.119 238.58 138.978 237.479 138.978C236.377 138.978 235.625 138.119 235.625 136.816ZM246.301 140.725C248.396 140.725 249.888 139.462 249.954 137.944H247.899C247.751 138.562 247.107 138.978 246.315 138.978C245.254 138.978 244.609 138.374 244.488 137.246H250.008V137.004C250.008 133.996 248.141 132.908 246.207 132.908C243.79 132.908 242.42 134.681 242.42 136.816C242.42 139.194 243.871 140.725 246.301 140.725ZM244.569 135.944C244.811 135.124 245.388 134.6 246.207 134.6C247.066 134.6 247.671 135.137 247.86 135.944H244.569ZM251.362 140.523H253.417V137.3C253.417 135.648 254.048 134.775 255.364 134.775C255.7 134.775 256.156 134.895 256.372 135.07V133.122C256.143 132.989 255.888 132.908 255.418 132.908C254.585 132.908 253.874 133.364 253.417 134.117V133.109H251.362V140.523ZM260.491 140.725C262.492 140.725 263.795 139.838 263.795 138.481C263.795 137.3 262.989 136.588 261.498 136.252L260.263 135.957C259.47 135.769 259.201 135.567 259.201 135.231C259.201 134.828 259.644 134.546 260.29 134.546C261.082 134.546 261.633 135.004 261.606 135.554H263.62C263.688 134.077 262.25 132.908 260.37 132.908C258.477 132.908 257.214 133.822 257.214 135.178C257.214 136.346 258.006 137.098 259.605 137.407L260.773 137.635C261.727 137.837 261.861 138.079 261.861 138.402C261.861 138.831 261.364 139.14 260.586 139.14C259.699 139.14 259.094 138.643 259.148 137.971H257.093C256.932 139.569 258.355 140.725 260.491 140.725Z" fill="#E9C0E9"/>
</svg>
