<svg width="16" height="14" viewBox="0 0 16 14" fill="none" xmlns="http://www.w3.org/2000/svg">
<path d="M12.7314 5.75781H9.28613V2.3125C9.28613 1.88973 8.94328 1.54688 8.52051 1.54688H7.75488C7.33211 1.54688 6.98926 1.88973 6.98926 2.3125V5.75781H3.54395C3.12118 5.75781 2.77832 6.10067 2.77832 6.52344V7.28906C2.77832 7.71183 3.12118 8.05469 3.54395 8.05469H6.98926V11.5C6.98926 11.9228 7.33211 12.2656 7.75488 12.2656H8.52051C8.94328 12.2656 9.28613 11.9228 9.28613 11.5V8.05469H12.7314C13.1542 8.05469 13.4971 7.71183 13.4971 7.28906V6.52344C13.4971 6.10067 13.1542 5.75781 12.7314 5.75781Z" fill="white"/>
</svg>
