<svg width="27" height="22" viewBox="0 0 27 22" fill="none" xmlns="http://www.w3.org/2000/svg">
<path d="M17.0147 7.13378C16.4107 3.41386 14.986 0.802002 13.3281 0.802002C11.6702 0.802002 10.2455 3.41386 9.64152 7.13378H17.0147ZM9.32909 11.1328C9.32909 12.0576 9.37908 12.9449 9.46656 13.7988H17.1855C17.273 12.9449 17.323 12.0576 17.323 11.1328C17.323 10.208 17.273 9.32075 17.1855 8.46679H9.46656C9.37908 9.32075 9.32909 10.208 9.32909 11.1328ZM22.8549 7.13378C21.6636 4.30531 19.2517 2.11835 16.2732 1.23523C17.2896 2.64322 17.9895 4.76353 18.356 7.13378H22.8549ZM10.3788 1.23523C7.40457 2.11835 4.98849 4.30531 3.80128 7.13378H8.30018C8.66259 4.76353 9.36242 2.64322 10.3788 1.23523ZM23.3007 8.46679H18.5227C18.6102 9.34157 18.6601 10.2372 18.6601 11.1328C18.6601 12.0284 18.6102 12.924 18.5227 13.7988H23.2965C23.5256 12.9449 23.6547 12.0576 23.6547 11.1328C23.6547 10.208 23.5256 9.32075 23.3007 8.46679ZM7.99609 11.1328C7.99609 10.2372 8.04608 9.34157 8.13355 8.46679H3.35556C3.13062 9.32075 2.99731 10.208 2.99731 11.1328C2.99731 12.0576 3.13062 12.9449 3.35556 13.7988H8.12939C8.04608 12.924 7.99609 12.0284 7.99609 11.1328ZM9.64152 15.1318C10.2455 18.8517 11.6702 21.4636 13.3281 21.4636C14.986 21.4636 16.4107 18.8517 17.0147 15.1318H9.64152ZM16.2774 21.0304C19.2517 20.1473 21.6677 17.9603 22.8591 15.1318H18.3602C17.9936 17.5021 17.2938 19.6224 16.2774 21.0304ZM3.80128 15.1318C4.99266 17.9603 7.40457 20.1473 10.383 21.0304C9.36659 19.6224 8.66676 17.5021 8.30018 15.1318H3.80128Z" fill="#161C2D"/>
</svg>
