<svg width="308" height="203" viewBox="0 0 308 203" fill="none" xmlns="http://www.w3.org/2000/svg">
<path d="M277.167 5.22656H30.5205C13.7551 5.22656 0.164062 18.8176 0.164062 35.583V166.495C0.164062 183.261 13.7551 196.852 30.5205 196.852H277.167C293.932 196.852 307.523 183.261 307.523 166.495V35.583C307.523 18.8176 293.932 5.22656 277.167 5.22656Z" fill="#502274"/>
<path d="M190.932 49.1522C190.932 41.1344 197.432 34.6343 205.449 34.6343C213.467 34.6343 219.967 41.1344 219.967 49.1522C219.967 57.1711 213.467 63.6712 205.449 63.6712C197.432 63.6712 190.932 57.1711 190.932 49.1522Z" fill="#CE00BA"/>
<path fill-rule="evenodd" clip-rule="evenodd" d="M205.16 43.6635C203.748 43.6635 203.571 43.6691 203.016 43.6948C202.463 43.7194 202.085 43.8086 201.754 43.9367C201.407 44.0674 201.092 44.272 200.832 44.5362C200.569 44.796 200.364 45.11 200.233 45.4564C200.105 45.7884 200.017 46.166 199.991 46.72C199.966 47.2749 199.96 47.4504 199.96 48.8639C199.96 50.2774 199.965 50.4529 199.991 51.0078C200.017 51.5618 200.105 51.9394 200.233 52.2705C200.364 52.6177 200.569 52.9317 200.832 53.1916C201.122 53.4809 201.412 53.6583 201.754 53.7911C202.085 53.9201 202.463 54.0084 203.016 54.033C203.571 54.0586 203.748 54.0643 205.16 54.0643C206.573 54.0643 206.75 54.0586 207.305 54.033C207.858 54.0074 208.237 53.9192 208.568 53.7911C208.914 53.6612 209.229 53.4563 209.488 53.1916C209.777 52.9022 209.956 52.6129 210.088 52.2714C210.216 51.9394 210.305 51.5618 210.33 51.0078C210.355 50.4529 210.362 50.2764 210.362 48.8639C210.362 47.4504 210.355 47.2749 210.33 46.72C210.305 46.166 210.216 45.7884 210.088 45.4573C209.957 45.1103 209.753 44.796 209.488 44.5362C209.228 44.2718 208.914 44.0672 208.568 43.9367C208.237 43.8076 207.858 43.7194 207.304 43.6948C206.75 43.6691 206.574 43.6635 205.16 43.6635ZM205.16 50.5989C204.875 50.5988 204.594 50.5283 204.342 50.3937C204.09 50.2591 203.876 50.0645 203.717 49.8272C203.559 49.5899 203.461 49.3172 203.433 49.0331C203.405 48.7491 203.448 48.4626 203.557 48.1989C203.677 47.9088 203.874 47.6567 204.127 47.4698C204.379 47.2828 204.677 47.1678 204.99 47.1371C205.303 47.1064 205.618 47.1612 205.902 47.2956C206.186 47.43 206.428 47.6389 206.602 47.9001C206.777 48.1613 206.877 48.465 206.892 48.7788C206.908 49.0925 206.838 49.4046 206.69 49.6816C206.542 49.9587 206.321 50.1903 206.052 50.3519C205.782 50.5134 205.474 50.5988 205.16 50.5989ZM205.16 46.1906C204.805 46.1839 204.452 46.2481 204.122 46.3794C203.792 46.5106 203.492 46.7064 203.238 46.9551C202.985 47.2039 202.783 47.5007 202.646 47.8282C202.508 48.1557 202.437 48.5073 202.437 48.8625C202.437 49.2176 202.508 49.5692 202.646 49.8967C202.783 50.2242 202.985 50.521 203.238 50.7698C203.492 51.0186 203.792 51.2143 204.122 51.3456C204.452 51.4768 204.805 51.541 205.16 51.5343C205.86 51.5211 206.527 51.2338 207.017 50.7342C207.507 50.2346 207.782 49.5625 207.782 48.8625C207.782 48.1624 207.507 47.4904 207.017 46.9907C206.527 46.4911 205.86 46.2038 205.16 46.1906ZM208.611 46.1422C208.615 46.2272 208.601 46.312 208.57 46.3914C208.54 46.4709 208.494 46.5434 208.435 46.6047C208.376 46.666 208.306 46.7148 208.227 46.7481C208.149 46.7814 208.065 46.7985 207.98 46.7985C207.895 46.7985 207.811 46.7814 207.733 46.7481C207.654 46.7148 207.584 46.666 207.525 46.6047C207.466 46.5434 207.42 46.4709 207.39 46.3914C207.359 46.312 207.345 46.2272 207.349 46.1422C207.355 45.979 207.424 45.8246 207.542 45.7114C207.66 45.5982 207.817 45.5349 207.98 45.5349C208.143 45.5349 208.3 45.5982 208.418 45.7114C208.536 45.8246 208.605 45.979 208.611 46.1422Z" fill="white"/>
<path d="M190.932 83.881C190.932 75.8631 197.432 69.363 205.449 69.363C213.467 69.363 219.967 75.8631 219.967 83.881C219.967 91.8989 213.467 98.399 205.449 98.399C197.432 98.399 190.932 91.8989 190.932 83.881Z" fill="#FF2272"/>
<mask id="mask0_4_236" style="mask-type:luminance" maskUnits="userSpaceOnUse" x="196" y="77" width="18" height="13">
<path d="M196.993 77.694H213.326V89.4903H196.993V77.694Z" fill="white"/>
</mask>
<g mask="url(#mask0_4_236)">
<path d="M208.133 79.6017C207.692 79.0974 207.45 78.45 207.451 77.7803H206.917C206.985 78.1506 207.128 78.5031 207.338 78.8163C207.547 79.1294 207.817 79.3967 208.133 79.6017ZM203.19 83.5366C202.815 83.5373 202.45 83.6637 202.155 83.8956C201.86 84.1275 201.651 84.4515 201.562 84.8161C201.473 85.1806 201.508 85.5645 201.663 85.9065C201.817 86.2486 202.081 86.5291 202.414 86.7032C202.206 86.4187 202.095 86.0754 202.095 85.7232C202.095 84.7974 202.847 84.0441 203.772 84.0441C203.945 84.0441 204.113 84.0735 204.269 84.1229V82.0814C204.104 82.0587 203.938 82.0469 203.772 82.0463C203.743 82.0463 203.716 82.0491 203.686 82.0491V83.6144C203.525 83.5638 203.358 83.5376 203.19 83.5366Z" fill="white"/>
<path d="M209.644 80.4972V82.0492C208.648 82.0505 207.676 81.7382 206.867 81.1565V85.2186C206.866 86.1935 206.479 87.1284 205.789 87.8181C205.1 88.5077 204.166 88.8959 203.191 88.8974C202.437 88.8974 201.701 88.6645 201.085 88.2305C201.428 88.6007 201.844 88.8961 202.307 89.0982C202.769 89.3002 203.268 89.4047 203.773 89.4049C204.748 89.4034 205.683 89.0152 206.372 88.3256C207.061 87.6359 207.449 86.7011 207.449 85.7261V81.664C208.258 82.2457 209.23 82.558 210.227 82.5567V80.5598C210.031 80.5599 209.836 80.5389 209.644 80.4972Z" fill="white"/>
<path d="M206.864 85.2185V81.1555C207.674 81.7371 208.646 82.0494 209.643 82.0482V80.4962C209.054 80.3697 208.523 80.0554 208.129 79.6007C207.814 79.3952 207.543 79.1279 207.333 78.8148C207.124 78.5018 206.98 78.1495 206.91 77.7793H205.449L205.446 85.7868C205.43 86.2203 205.246 86.6308 204.934 86.9321C204.622 87.2335 204.205 87.4023 203.771 87.4032C203.505 87.4028 203.243 87.3392 203.006 87.2179C202.77 87.0965 202.565 86.9208 202.409 86.705C202.138 86.5624 201.911 86.3485 201.752 86.0864C201.594 85.8243 201.51 85.5239 201.509 85.2176C201.509 84.2917 202.261 83.5385 203.186 83.5385C203.359 83.5385 203.526 83.5679 203.682 83.6163V82.051C202.974 82.0682 202.286 82.2896 201.701 82.6884C201.116 83.0873 200.659 83.6467 200.384 84.2994C200.11 84.9521 200.029 85.6702 200.153 86.3675C200.277 87.0647 200.599 87.7113 201.082 88.2295C201.699 88.6635 202.435 88.8964 203.189 88.8964C204.164 88.8944 205.098 88.506 205.787 87.8164C206.476 87.1269 206.863 86.1932 206.864 85.2185Z" fill="white"/>
</g>
<path d="M190.932 118.61C190.932 110.591 197.432 104.091 205.449 104.091C213.467 104.091 219.967 110.591 219.967 118.61C219.967 126.628 213.467 133.128 205.449 133.128C197.432 133.128 190.932 126.628 190.932 118.61Z" fill="#2375E0"/>
<mask id="mask1_4_236" style="mask-type:luminance" maskUnits="userSpaceOnUse" x="196" y="112" width="18" height="13">
<path d="M196.993 112.423H213.326V124.219H196.993V112.423Z" fill="white"/>
</mask>
<g mask="url(#mask1_4_236)">
<path d="M211.058 118.356C211.058 115.079 208.417 112.423 205.159 112.423C201.902 112.423 199.262 115.079 199.262 118.356C199.262 121.319 201.418 123.773 204.238 124.219V120.072H202.74V118.356H204.238V117.049C204.238 115.562 205.118 114.74 206.466 114.74C207.111 114.74 207.786 114.856 207.786 114.856V116.317H207.042C206.309 116.317 206.081 116.774 206.081 117.244V118.356H207.717L207.456 120.072H206.081V124.219C208.902 123.773 211.058 121.319 211.058 118.356Z" fill="white"/>
</g>
<path d="M190.932 153.338C190.932 145.32 197.432 138.82 205.449 138.82C213.467 138.82 219.967 145.32 219.967 153.338C219.967 161.356 213.467 167.856 205.449 167.856C197.432 167.856 190.932 161.356 190.932 153.338Z" fill="#38B1FD"/>
<path d="M211.058 149.422C210.616 149.616 210.148 149.744 209.668 149.8C210.173 149.502 210.551 149.03 210.732 148.473C210.264 148.748 209.746 148.947 209.195 149.054C208.967 148.815 208.693 148.624 208.39 148.494C208.086 148.364 207.759 148.297 207.428 148.297C207.066 148.296 206.708 148.377 206.38 148.533C206.053 148.69 205.766 148.918 205.539 149.201C205.312 149.484 205.153 149.815 205.072 150.169C204.991 150.522 204.99 150.889 205.071 151.243C204.111 151.196 203.171 150.949 202.312 150.517C201.453 150.086 200.694 149.479 200.083 148.737C199.775 149.265 199.681 149.891 199.82 150.487C199.959 151.083 200.321 151.602 200.832 151.939C200.448 151.927 200.072 151.825 199.736 151.639V151.67C199.736 152.832 200.57 153.801 201.677 154.022C201.32 154.117 200.947 154.131 200.584 154.063C200.741 154.542 201.043 154.959 201.448 155.258C201.854 155.556 202.342 155.721 202.846 155.729C201.828 156.519 200.54 156.876 199.262 156.722C200.37 157.428 201.657 157.802 202.971 157.8C207.423 157.8 209.857 154.145 209.857 150.975C209.857 150.872 209.854 150.769 209.849 150.665C210.322 150.326 210.731 149.906 211.057 149.424L211.058 149.422Z" fill="white"/>
<path d="M232.65 54.7379C232.006 54.7379 231.445 54.6278 230.968 54.4077C230.516 54.209 230.13 53.886 229.854 53.4762C229.596 53.0673 229.464 52.5901 229.457 52.0437H230.797C230.812 52.4915 230.987 52.8434 231.32 53.1014C231.654 53.3585 232.097 53.4875 232.65 53.4875C233.013 53.4875 233.336 53.4306 233.616 53.3168C233.896 53.203 234.112 53.0445 234.264 52.8396C234.415 52.6271 234.491 52.3814 234.491 52.1006C234.491 51.6386 234.275 51.2753 233.843 51.0097C233.412 50.7441 232.821 50.6113 232.07 50.6113V49.4758C232.494 49.4758 232.855 49.4226 233.15 49.3164C233.453 49.2025 233.684 49.0479 233.843 48.8506C234.01 48.6457 234.094 48.4076 234.094 48.1344C234.094 47.8014 233.957 47.5244 233.684 47.3053C233.412 47.0776 233.066 46.9638 232.65 46.9638C232.188 46.9638 231.806 47.0776 231.502 47.3053C231.362 47.4034 231.246 47.5321 231.164 47.6817C231.081 47.8313 231.033 47.9978 231.025 48.1685H229.729C229.737 47.6914 229.866 47.2673 230.116 46.8955C230.378 46.5206 230.735 46.2225 231.15 46.0322C231.589 45.8273 232.089 45.7248 232.65 45.7248C233.138 45.719 233.621 45.8282 234.06 46.0436C234.491 46.2561 234.828 46.5473 235.071 46.9182C235.32 47.2825 235.446 47.6876 235.446 48.1344C235.446 48.5366 235.358 48.8885 235.185 49.1912C235.018 49.4947 234.771 49.7338 234.446 49.9074C234.127 50.0819 233.741 50.1806 233.286 50.2034V49.7252C233.802 49.7414 234.252 49.8467 234.639 50.044C235.025 50.2413 235.32 50.5136 235.525 50.8617C235.73 51.2108 235.832 51.6235 235.832 52.1006C235.832 52.6319 235.7 53.0967 235.434 53.4989C235.177 53.8926 234.805 54.2 234.32 54.4191C233.843 54.6316 233.286 54.7379 232.65 54.7379ZM241.035 46.6573L241.512 47.1231H236.421V45.8956H242.206V46.9751L238.955 54.5557H237.569L241.035 46.6573ZM245.039 49.1124C244.748 49.1135 244.463 49.0358 244.213 48.8877C243.962 48.7395 243.757 48.5264 243.618 48.271C243.474 48.0104 243.4 47.7169 243.403 47.4191C243.403 47.1079 243.475 46.8243 243.618 46.5663C243.757 46.3108 243.962 46.0977 244.213 45.9496C244.463 45.8014 244.748 45.7238 245.039 45.7248C245.342 45.7248 245.619 45.8007 245.868 45.9525C246.119 46.0967 246.316 46.3007 246.459 46.5663C246.611 46.8243 246.687 47.1079 246.687 47.4191C246.687 47.7293 246.611 48.0167 246.459 48.2824C246.32 48.5356 246.116 48.7474 245.868 48.8961C245.616 49.0408 245.33 49.1155 245.039 49.1124ZM245.062 48.2492C245.166 48.2509 245.27 48.2305 245.366 48.1893C245.462 48.148 245.548 48.087 245.619 48.0101C245.697 47.933 245.758 47.8408 245.799 47.7392C245.84 47.6376 245.86 47.5286 245.857 47.4191C245.86 47.3096 245.84 47.2006 245.799 47.099C245.758 46.9974 245.697 46.9052 245.619 46.8281C245.547 46.7487 245.459 46.6853 245.361 46.6422C245.263 46.599 245.158 46.577 245.051 46.5777C244.823 46.5777 244.633 46.6611 244.482 46.8281C244.407 46.9067 244.348 46.9994 244.309 47.1008C244.27 47.2023 244.252 47.3104 244.255 47.4191C244.255 47.6534 244.33 47.8507 244.482 48.0101C244.557 48.0885 244.647 48.1503 244.747 48.1913C244.846 48.2324 244.954 48.2527 245.062 48.2492ZM249.46 45.8965H250.96L244.857 54.5557H243.391L249.46 45.8956V45.8965ZM249.3 54.7265C249.01 54.7278 248.724 54.6502 248.474 54.502C248.224 54.3538 248.019 54.1406 247.88 53.885C247.736 53.6202 247.662 53.3232 247.664 53.0218C247.664 52.7106 247.736 52.4308 247.88 52.1803C248.019 51.9247 248.224 51.7114 248.474 51.5632C248.724 51.415 249.01 51.3375 249.3 51.3389C249.604 51.3389 249.88 51.4148 250.13 51.5665C250.38 51.7107 250.577 51.9119 250.721 52.1689C250.872 52.427 250.948 52.7106 250.948 53.0218C250.948 53.3396 250.872 53.6279 250.721 53.885C250.577 54.1431 250.38 54.347 250.13 54.4988C249.88 54.6506 249.604 54.7265 249.3 54.7265ZM249.323 53.8509C249.428 53.8528 249.531 53.8326 249.627 53.7916C249.723 53.7505 249.809 53.6896 249.88 53.6128C249.958 53.5358 250.02 53.4437 250.061 53.342C250.102 53.2404 250.122 53.1314 250.119 53.0218C250.121 52.9139 250.101 52.8069 250.06 52.7072C250.019 52.6075 249.957 52.5173 249.88 52.4421C249.808 52.3626 249.721 52.2991 249.623 52.256C249.525 52.2128 249.419 52.1909 249.312 52.1917C249.205 52.1896 249.098 52.2109 249 52.2542C248.902 52.2974 248.814 52.3616 248.744 52.4421C248.594 52.5973 248.513 52.8055 248.517 53.0208C248.517 53.2561 248.593 53.4534 248.744 53.6128C248.895 53.7712 249.089 53.8509 249.323 53.8509ZM229.502 88.2912C230.646 87.6177 231.57 87.0077 232.275 86.4622C232.987 85.9092 233.51 85.4017 233.843 84.9387C234.176 84.4691 234.343 84.0147 234.343 83.5755C234.343 83.1135 234.188 82.7455 233.877 82.4732C233.574 82.2 233.165 82.0634 232.65 82.0634C232.112 82.0634 231.673 82.219 231.331 82.5301C230.991 82.8403 230.816 83.2416 230.809 83.7349H229.457C229.459 83.215 229.608 82.7063 229.888 82.2683C230.176 81.8212 230.576 81.4569 231.048 81.2115C231.541 80.9518 232.092 80.8191 232.65 80.8254C233.241 80.8254 233.764 80.9421 234.218 81.1764C234.662 81.395 235.036 81.7339 235.298 82.1545C235.563 82.5719 235.696 83.0452 235.696 83.5755C235.696 84.1438 235.506 84.7234 235.128 85.3144C234.756 85.9054 234.207 86.5002 233.48 87.0978C232.752 87.6888 231.854 88.2798 230.786 88.8718L230.752 88.4278H235.742V89.6554H229.502V88.2912ZM240.233 80.814C240.9 80.814 241.48 80.9876 241.972 81.3358C242.472 81.6773 242.854 82.1734 243.12 82.8252C243.385 83.4693 243.518 84.2348 243.518 85.1209C243.518 86.1207 243.385 86.9773 243.12 87.6888C242.862 88.3937 242.48 88.9277 241.972 89.292C241.472 89.6478 240.862 89.8261 240.142 89.8261C239.657 89.8322 239.176 89.7312 238.734 89.5301C238.321 89.3354 237.962 89.043 237.687 88.6783C237.408 88.2984 237.221 87.8586 237.142 87.3938H238.472C238.548 87.7799 238.734 88.0835 239.029 88.3026C239.332 88.5227 239.703 88.6327 240.142 88.6327C240.642 88.6327 241.063 88.4696 241.404 88.1442C241.752 87.8178 242.006 87.3378 242.166 86.7003C242.332 86.0648 242.4 85.2916 242.37 84.3819H242.824C242.824 84.8752 242.711 85.3144 242.483 85.7005C242.256 86.0866 241.942 86.3901 241.541 86.6093C241.119 86.8262 240.65 86.9357 240.176 86.928C239.585 86.928 239.059 86.8028 238.597 86.5533C238.144 86.3049 237.77 85.9345 237.517 85.4842C237.259 85.0222 237.13 84.4919 237.13 83.8933C237.13 83.2871 237.259 82.7531 237.517 82.2911C237.774 81.83 238.156 81.4516 238.62 81.2001C239.089 80.9421 239.627 80.814 240.233 80.814ZM240.29 82.0065C239.955 82.0011 239.625 82.0877 239.336 82.2569C239.056 82.4154 238.824 82.6473 238.665 82.9276C238.502 83.2229 238.42 83.556 238.426 83.8933C238.426 84.2415 238.506 84.5602 238.665 84.8486C238.831 85.1284 239.055 85.3485 239.336 85.507C239.616 85.6663 239.935 85.746 240.29 85.746C240.638 85.746 240.95 85.6663 241.222 85.507C241.495 85.3485 241.707 85.1284 241.858 84.8486C242.01 84.5678 242.086 84.2491 242.086 83.8933C242.086 83.53 242.01 83.2075 241.858 82.9276C241.715 82.6478 241.494 82.415 241.222 82.2569C240.941 82.0881 240.618 82.0017 240.29 82.0074V82.0065ZM246.093 84.2121C245.802 84.2134 245.517 84.1358 245.267 83.9876C245.017 83.8394 244.811 83.6262 244.673 83.3706C244.528 83.1103 244.454 82.8167 244.457 82.5187C244.457 82.2076 244.529 81.9239 244.673 81.6659C244.811 81.4103 245.017 81.1971 245.267 81.0489C245.517 80.9007 245.802 80.8232 246.093 80.8245C246.397 80.8245 246.673 80.9004 246.923 81.0521C247.173 81.1963 247.37 81.4012 247.514 81.6659C247.665 81.9239 247.741 82.2076 247.741 82.5187C247.741 82.8289 247.665 83.1164 247.514 83.382C247.37 83.64 247.173 83.844 246.923 83.9958C246.671 84.1405 246.384 84.2151 246.093 84.2121ZM246.116 83.3488C246.22 83.3505 246.324 83.3301 246.42 83.2889C246.516 83.2477 246.602 83.1866 246.673 83.1097C246.751 83.0328 246.812 82.9407 246.853 82.839C246.895 82.7374 246.914 82.6284 246.912 82.5187C246.914 82.4091 246.895 82.3001 246.853 82.1985C246.812 82.0968 246.751 82.0047 246.673 81.9277C246.601 81.8483 246.513 81.7849 246.415 81.7417C246.317 81.6986 246.211 81.6766 246.104 81.6773C245.997 81.6752 245.891 81.6965 245.793 81.7398C245.695 81.783 245.607 81.8472 245.536 81.9277C245.461 82.0064 245.403 82.0991 245.364 82.2006C245.325 82.302 245.306 82.4101 245.309 82.5187C245.309 82.7531 245.384 82.9504 245.536 83.1097C245.688 83.2682 245.882 83.3488 246.116 83.3488ZM250.514 80.9962H252.014L245.912 89.6554H244.445L250.514 80.9962ZM250.355 89.8261C250.065 89.8272 249.779 89.7495 249.529 89.6014C249.279 89.4532 249.073 89.2401 248.934 88.9847C248.791 88.7198 248.716 88.4228 248.719 88.1214C248.719 87.8103 248.79 87.5304 248.934 87.28C249.073 87.0246 249.279 86.8117 249.529 86.6637C249.779 86.5157 250.065 86.4382 250.355 86.4395C250.658 86.4395 250.935 86.5154 251.184 86.6671C251.435 86.8104 251.631 87.0115 251.775 87.2686C251.927 87.5266 252.003 87.8103 252.003 88.1214C252.003 88.4392 251.927 88.7276 251.775 88.9847C251.636 89.2377 251.432 89.4495 251.184 89.5984C250.935 89.7502 250.658 89.8261 250.355 89.8261ZM250.378 88.9505C250.482 88.9523 250.586 88.9321 250.682 88.891C250.778 88.85 250.864 88.7891 250.935 88.7124C251.013 88.6353 251.074 88.5431 251.115 88.4414C251.156 88.3398 251.176 88.2309 251.173 88.1214C251.175 88.0137 251.155 87.9067 251.114 87.807C251.073 87.7073 251.012 87.6171 250.935 87.5418C250.863 87.4624 250.775 87.399 250.678 87.3559C250.58 87.3127 250.474 87.2907 250.367 87.2913C250.139 87.2913 249.949 87.3748 249.798 87.5418C249.724 87.6185 249.666 87.7091 249.627 87.8084C249.588 87.9077 249.569 88.0138 249.571 88.1205C249.571 88.3557 249.647 88.553 249.798 88.7124C249.873 88.7908 249.963 88.8526 250.063 88.8936C250.163 88.9347 250.27 88.9541 250.378 88.9505ZM229.502 122.442C230.646 121.769 231.57 121.159 232.275 120.613C232.987 120.06 233.51 119.552 233.843 119.09C234.176 118.62 234.343 118.166 234.343 117.727C234.343 117.265 234.188 116.896 233.877 116.624C233.574 116.351 233.165 116.214 232.65 116.214C232.112 116.214 231.673 116.37 231.331 116.681C230.991 116.991 230.816 117.393 230.809 117.885H229.457C229.459 117.365 229.608 116.857 229.888 116.419C230.176 115.972 230.576 115.608 231.048 115.363C231.541 115.103 232.092 114.97 232.65 114.976C233.241 114.976 233.764 115.093 234.218 115.328C234.68 115.564 235.04 115.889 235.298 116.305C235.563 116.722 235.696 117.196 235.696 117.727C235.696 118.295 235.506 118.874 235.128 119.465C234.756 120.056 234.207 120.651 233.48 121.249C232.752 121.84 231.854 122.431 230.786 123.022L230.752 122.579H235.742V123.806H229.502V122.442ZM238.752 115.146H240.082V123.806H238.752V115.146ZM236.787 116.522H237.105C237.612 116.522 238.014 116.404 238.309 116.169C238.605 115.927 238.752 115.597 238.752 115.18H239.4C239.4 115.711 239.309 116.176 239.128 116.579C238.963 116.953 238.69 117.269 238.344 117.487C238.011 117.7 237.612 117.806 237.15 117.806H236.787V116.522ZM242.919 118.363C242.624 118.363 242.347 118.287 242.09 118.135C241.842 117.987 241.638 117.775 241.499 117.522C241.354 117.261 241.279 116.968 241.283 116.67C241.283 116.359 241.355 116.075 241.499 115.817C241.637 115.561 241.842 115.348 242.092 115.2C242.343 115.052 242.628 114.975 242.919 114.976C243.222 114.976 243.499 115.051 243.749 115.203C243.998 115.347 244.196 115.552 244.34 115.817C244.491 116.075 244.567 116.359 244.567 116.67C244.567 116.98 244.491 117.268 244.34 117.533C244.196 117.791 243.998 117.995 243.749 118.147C243.497 118.292 243.21 118.366 242.919 118.363ZM242.942 117.499C243.046 117.501 243.15 117.48 243.246 117.439C243.342 117.398 243.428 117.337 243.499 117.261C243.577 117.184 243.638 117.092 243.679 116.99C243.72 116.888 243.74 116.779 243.738 116.67C243.74 116.56 243.721 116.451 243.679 116.349C243.638 116.248 243.577 116.156 243.499 116.079C243.427 115.999 243.339 115.936 243.241 115.893C243.143 115.85 243.037 115.828 242.93 115.828C242.823 115.826 242.717 115.848 242.619 115.891C242.52 115.934 242.433 115.998 242.362 116.079C242.287 116.157 242.228 116.25 242.189 116.351C242.151 116.453 242.132 116.561 242.135 116.67C242.135 116.904 242.21 117.101 242.362 117.261C242.437 117.339 242.527 117.401 242.627 117.442C242.726 117.483 242.834 117.502 242.942 117.499ZM247.34 115.146H248.84L242.738 123.806H241.271L247.34 115.146ZM247.181 123.977C246.89 123.978 246.605 123.901 246.354 123.753C246.104 123.605 245.899 123.391 245.76 123.136C245.616 122.871 245.542 122.574 245.545 122.272C245.545 121.961 245.616 121.681 245.76 121.431C245.9 121.176 246.105 120.964 246.355 120.816C246.605 120.668 246.891 120.59 247.181 120.59C247.484 120.59 247.761 120.666 248.01 120.817C248.261 120.961 248.457 121.162 248.601 121.42C248.753 121.678 248.829 121.961 248.829 122.272C248.829 122.59 248.753 122.879 248.601 123.136C248.462 123.389 248.258 123.601 248.01 123.749C247.761 123.901 247.473 123.98 247.181 123.977ZM247.204 123.102C247.308 123.103 247.412 123.083 247.508 123.042C247.604 123.001 247.69 122.94 247.761 122.863C247.839 122.786 247.9 122.694 247.941 122.592C247.982 122.491 248.001 122.382 247.999 122.272C248.001 122.165 247.981 122.058 247.94 121.958C247.899 121.858 247.838 121.768 247.761 121.693C247.689 121.613 247.601 121.55 247.503 121.507C247.406 121.464 247.3 121.442 247.193 121.442C246.965 121.442 246.775 121.526 246.624 121.693C246.55 121.769 246.491 121.86 246.452 121.96C246.413 122.059 246.394 122.166 246.397 122.272C246.397 122.507 246.473 122.704 246.624 122.863C246.699 122.942 246.789 123.003 246.889 123.044C246.989 123.086 247.096 123.105 247.204 123.102ZM231.422 149.297H232.752V157.957H231.422V149.297ZM229.457 150.673H229.775C230.282 150.673 230.684 150.555 230.979 150.32C231.274 150.078 231.422 149.748 231.422 149.331H232.07C232.07 149.862 231.979 150.327 231.798 150.73C231.633 151.104 231.359 151.42 231.014 151.638C230.681 151.851 230.282 151.957 229.82 151.957H229.457V150.673ZM237.139 158.139C236.495 158.139 235.934 158.029 235.457 157.809C235.005 157.611 234.619 157.288 234.343 156.878C234.086 156.469 233.953 155.991 233.946 155.445H235.286C235.301 155.893 235.476 156.245 235.81 156.503C236.143 156.76 236.586 156.889 237.139 156.889C237.503 156.889 237.825 156.832 238.105 156.718C238.361 156.623 238.585 156.458 238.752 156.241C238.904 156.029 238.98 155.783 238.98 155.502C238.98 155.04 238.764 154.677 238.332 154.411C237.901 154.147 237.31 154.014 236.559 154.014V152.877C236.983 152.877 237.344 152.824 237.639 152.718C237.942 152.604 238.173 152.45 238.332 152.252C238.499 152.047 238.583 151.809 238.583 151.536C238.583 151.203 238.446 150.926 238.173 150.707C237.901 150.479 237.555 150.365 237.139 150.365C236.677 150.365 236.295 150.479 235.991 150.707C235.851 150.805 235.735 150.934 235.652 151.083C235.57 151.233 235.522 151.399 235.514 151.57H234.218C234.226 151.093 234.355 150.669 234.605 150.297C234.867 149.923 235.224 149.625 235.639 149.434C236.078 149.229 236.578 149.127 237.139 149.127C237.654 149.127 238.124 149.233 238.549 149.445C238.98 149.658 239.317 149.949 239.56 150.32C239.809 150.684 239.935 151.089 239.935 151.536C239.935 151.938 239.847 152.29 239.674 152.593C239.507 152.896 239.26 153.134 238.935 153.309C238.617 153.484 238.23 153.582 237.775 153.605V153.128C238.291 153.142 238.741 153.248 239.128 153.446C239.514 153.643 239.809 153.915 240.014 154.263C240.219 154.612 240.322 155.025 240.322 155.502C240.322 156.033 240.189 156.499 239.923 156.901C239.666 157.294 239.294 157.602 238.809 157.821C238.332 158.033 237.775 158.139 237.139 158.139ZM242.775 152.514C242.48 152.514 242.203 152.438 241.946 152.286C241.698 152.138 241.494 151.926 241.355 151.673C241.21 151.412 241.135 151.119 241.138 150.821C241.138 150.51 241.21 150.226 241.355 149.968C241.493 149.712 241.698 149.499 241.948 149.351C242.198 149.203 242.484 149.126 242.775 149.127C243.078 149.127 243.354 149.202 243.605 149.354C243.854 149.498 244.052 149.703 244.196 149.968C244.347 150.226 244.423 150.51 244.423 150.821C244.423 151.131 244.347 151.419 244.196 151.684C244.052 151.942 243.854 152.146 243.605 152.298C243.352 152.443 243.066 152.517 242.775 152.514ZM242.797 151.65C242.902 151.652 243.005 151.631 243.101 151.59C243.197 151.549 243.284 151.488 243.354 151.412C243.432 151.335 243.494 151.243 243.535 151.141C243.576 151.039 243.596 150.93 243.593 150.821C243.596 150.711 243.576 150.602 243.535 150.5C243.494 150.399 243.433 150.307 243.354 150.23C243.283 150.15 243.195 150.087 243.097 150.044C242.999 150.001 242.893 149.979 242.786 149.979C242.679 149.977 242.572 149.998 242.474 150.042C242.376 150.085 242.289 150.149 242.218 150.23C242.143 150.308 242.084 150.401 242.045 150.502C242.006 150.604 241.987 150.712 241.99 150.821C241.99 151.055 242.066 151.252 242.218 151.412C242.37 151.57 242.562 151.65 242.797 151.65ZM247.195 149.297H248.696L242.593 157.957H241.127L247.195 149.297ZM247.037 158.128C246.746 158.129 246.46 158.052 246.21 157.904C245.96 157.756 245.755 157.542 245.616 157.287C245.472 157.022 245.397 156.725 245.4 156.423C245.4 156.112 245.472 155.832 245.616 155.582C245.755 155.327 245.961 155.115 246.211 154.967C246.461 154.819 246.746 154.741 247.037 154.741C247.34 154.741 247.617 154.817 247.866 154.968C248.117 155.112 248.313 155.313 248.457 155.571C248.609 155.829 248.685 156.112 248.685 156.423C248.685 156.741 248.609 157.03 248.457 157.287C248.318 157.54 248.114 157.752 247.866 157.9C247.616 158.052 247.329 158.131 247.037 158.128ZM247.06 157.253C247.164 157.254 247.268 157.234 247.364 157.193C247.459 157.152 247.546 157.091 247.617 157.014C247.694 156.937 247.756 156.845 247.796 156.743C247.837 156.642 247.857 156.533 247.855 156.423C247.857 156.316 247.837 156.209 247.796 156.109C247.755 156.009 247.694 155.919 247.617 155.844C247.545 155.764 247.457 155.701 247.359 155.658C247.261 155.615 247.155 155.593 247.048 155.593C246.821 155.593 246.631 155.677 246.48 155.844C246.406 155.92 246.347 156.011 246.308 156.111C246.269 156.21 246.25 156.317 246.252 156.423C246.252 156.658 246.328 156.855 246.48 157.014C246.554 157.093 246.645 157.154 246.744 157.195C246.844 157.237 246.952 157.256 247.06 157.253Z" fill="#E9C0E9"/>
<mask id="mask2_4_236" style="mask-type:alpha" maskUnits="userSpaceOnUse" x="40" y="48" width="107" height="107">
<path d="M133.064 101.039C133.064 122.986 115.273 140.777 93.3252 140.777C71.3794 140.777 53.5876 122.986 53.5876 101.039C53.5876 79.0923 71.3794 61.3005 93.3261 61.3005C115.273 61.3005 133.064 79.0923 133.064 101.039Z" stroke="white" stroke-width="26.5619"/>
</mask>
<g mask="url(#mask2_4_236)">
<path d="M93.1306 101.988L178.508 77.7973L127.756 33.2113L93.1306 101.988Z" fill="#38B1FD"/>
<path d="M93.1306 101.988L53.7621 31.7883L186.097 -0.939697L93.1306 101.988Z" fill="#2375E0"/>
<path d="M93.1306 101.988L39.0582 3.32922L18.6625 190.685L93.1306 101.988Z" fill="#FF2272"/>
<path d="M93.1307 101.988L306.1 34.1599L-40.6274 250.924L93.1307 101.988Z" fill="#CE00BA"/>
</g>
</svg>
