<svg width="155" height="203" viewBox="0 0 155 203" fill="none" xmlns="http://www.w3.org/2000/svg">
<path d="M124.044 5.22278H31.0815C14.3169 5.22278 0.726562 18.8121 0.726562 35.5755V166.471C0.726562 183.235 14.3169 196.824 31.0815 196.824H124.044C140.808 196.824 154.398 183.235 154.398 166.471V35.5755C154.398 18.8121 140.808 5.22278 124.044 5.22278Z" fill="#BBBEAC"/>
<path d="M67.3585 74.1765L68.3165 74.7845L69.5317 72.8713L68.5746 72.2642L67.3585 74.1765ZM84.2851 72.2633L83.328 72.8713L84.5441 74.7845L85.5003 74.1774L84.2851 72.2633ZM61.6954 59.7153C61.6954 51.5201 68.2985 44.8871 76.4299 44.8871V42.6201C67.0341 42.6201 59.4282 50.2804 59.4282 59.7153H61.6954ZM76.4299 44.8871C84.5612 44.8871 91.1643 51.5191 91.1643 59.7153H93.4315C93.4315 50.2804 85.8257 42.6201 76.4299 42.6201V44.8871ZM68.5755 72.2633C66.4638 70.9213 64.7258 69.0672 63.5229 66.8734C62.32 64.6795 61.6914 62.2172 61.6954 59.7153H59.4282C59.424 62.5987 60.1488 65.4364 61.5353 67.9647C62.9217 70.4929 64.9248 72.6297 67.3585 74.1765L68.5746 72.2642L68.5755 72.2633ZM91.1643 59.7153C91.1643 64.9986 88.4182 69.6368 84.2842 72.2642L85.4993 74.1765C87.933 72.6297 89.9361 70.4929 91.3225 67.9647C92.709 65.4364 93.4338 62.5987 93.4296 59.7153H91.1624H91.1643ZM78.9759 55.4327L79.9027 56.0863L81.2098 54.2338L80.283 53.5793L78.9759 55.4327ZM77.9874 53.953L78.0339 52.8196H77.9874V53.953ZM74.8704 65.286L74.8229 66.4185H74.8704V65.286ZM73.881 63.8063L72.9552 63.1518L71.648 65.0043L72.5738 65.6587L73.881 63.8063ZM80.284 53.5803C79.6227 53.1157 78.8415 52.8516 78.0339 52.8196L77.941 55.0846C78.3204 55.1008 78.6809 55.2241 78.9759 55.4327L80.283 53.5793L80.284 53.5803ZM77.9874 52.8196L74.8704 52.8186V55.0856H77.9874V52.8196ZM74.8704 52.8186C73.7985 52.8186 72.7588 53.2236 71.9848 53.9616L73.548 55.6025C73.8895 55.2781 74.3638 55.0856 74.8704 55.0856V52.8186ZM71.9848 53.9616C71.5999 54.3247 71.293 54.7622 71.0826 55.2477C70.8722 55.7331 70.7628 56.2563 70.7611 56.7853H73.0282C73.0282 56.3528 73.2084 55.9269 73.548 55.6035L71.9848 53.9616ZM70.7611 56.7853C70.7611 57.8562 71.2088 58.8711 71.9848 59.61L73.548 57.9691C73.3854 57.8175 73.2554 57.6344 73.166 57.4308C73.0766 57.2273 73.0297 57.0076 73.0282 56.7853H70.7611ZM71.9848 59.61C72.7646 60.3468 73.7975 60.7559 74.8704 60.753V58.486C74.3796 58.4888 73.9064 58.3045 73.548 57.9691L71.9848 59.61ZM74.8704 60.753H77.9874V58.486H74.8704V60.753ZM77.9874 60.753C78.493 60.753 78.9673 60.9446 79.3088 61.2699L80.8731 59.629C80.0933 58.892 79.0604 58.4835 77.9874 58.486V60.753ZM79.3088 61.2699C79.6494 61.5924 79.8287 62.0193 79.8287 62.4527H82.0958C82.0941 61.9235 81.9848 61.4002 81.7744 60.9146C81.5641 60.429 81.2571 59.9912 80.8721 59.6281L79.3088 61.2699ZM79.8287 62.4527C79.8287 62.8853 79.6484 63.3112 79.3088 63.6356L80.8731 65.2765C81.2579 64.9134 81.5648 64.4758 81.7752 63.9904C81.9856 63.505 82.094 62.9818 82.0958 62.4527H79.8287ZM79.3088 63.6356C78.9673 63.9609 78.493 64.1525 77.9874 64.1525V66.4195C79.0593 66.4195 80.0981 66.0144 80.8731 65.2765L79.3088 63.6356ZM77.9874 64.1525H74.8704V66.4185L77.9874 66.4195V64.1525ZM74.9168 64.1525C74.5374 64.1373 74.177 64.015 73.881 63.8063L72.5738 65.6587C73.2331 66.1235 74.0147 66.3853 74.8229 66.4185L74.9168 64.1534V64.1525Z" fill="#1E2330"/>
<path d="M77.5625 51.6899V50.5564H75.2954V51.6899H77.5625ZM75.2954 53.9568V55.0903H77.5625V53.9568H75.2954ZM77.5625 65.801V64.6675H75.2954V65.801H77.5625ZM75.2954 67.5529V68.6864H77.5625V67.5529H75.2954ZM75.2954 51.6899V53.9568H77.5625V51.6899H75.2954ZM75.2954 65.801V67.5529H77.5625V65.801H75.2954Z" fill="#1E2330"/>
<path d="M59.4282 76.6189H93.4305" stroke="#1E2330" stroke-width="2.26714" stroke-linejoin="bevel"/>
<path d="M51.2144 119.043C54.5392 116.967 57.1488 115.184 59.0421 113.694C60.9564 112.182 62.3271 110.823 63.1533 109.613C63.9786 108.384 64.3922 107.165 64.3922 105.957C64.3922 104.466 63.8989 103.247 62.9115 102.299C61.924 101.353 60.6538 100.879 59.1029 100.879C57.5718 100.879 56.2922 101.342 55.2639 102.269C54.2366 103.176 53.6826 104.355 53.602 105.805H51.0635C51.1641 104.415 51.5767 103.176 52.3024 102.088C53.0215 101.005 54.0114 100.13 55.1738 99.5494C56.3624 98.9244 57.6819 98.6123 59.1332 98.6123C60.6443 98.6123 61.9847 98.9253 63.1533 99.5494C64.3419 100.174 65.2592 101.041 65.9043 102.148C66.5683 103.256 66.9003 104.526 66.9003 105.957C66.9003 107.407 66.4876 108.828 65.6614 110.217C64.8361 111.608 63.5366 113.069 61.7627 114.6C59.9888 116.112 57.6221 117.813 54.6597 119.707H67.0217V122.095H51.2144V119.043ZM78.382 122.579C76.0049 122.579 74.0707 122.005 72.5795 120.856C71.0883 119.707 70.2621 118.166 70.1008 116.232H72.6706C72.8717 117.481 73.4864 118.469 74.5137 119.194C75.542 119.919 76.8311 120.282 78.383 120.282C79.5118 120.282 80.5183 120.091 81.4052 119.707C82.2912 119.325 82.977 118.801 83.4608 118.136C83.9636 117.471 84.2159 116.705 84.2159 115.839C84.2159 114.328 83.6012 113.169 82.3718 112.364C81.1434 111.538 79.38 111.124 77.0834 111.124V108.979C78.2521 108.979 79.2889 108.798 80.1957 108.434C81.1026 108.072 81.8083 107.568 82.3111 106.923C82.8266 106.304 83.1056 105.522 83.0984 104.717C83.0984 103.589 82.6545 102.672 81.7676 101.967C80.9015 101.242 79.7727 100.879 78.383 100.879C77.073 100.879 75.9546 101.181 75.0278 101.786C74.121 102.39 73.567 103.216 73.3649 104.264H70.8569C71.058 102.511 71.8339 101.131 73.1838 100.123C74.5346 99.116 76.2667 98.6123 78.382 98.6123C79.7935 98.6123 81.0419 98.8741 82.1309 99.3986C83.2388 99.9222 84.0945 100.647 84.6997 101.575C85.3238 102.501 85.6369 103.548 85.6369 104.717C85.6369 105.926 85.3542 106.994 84.7907 107.921C84.2386 108.817 83.4266 109.523 82.4629 109.946C83.8336 110.328 84.8818 111.024 85.6065 112.031C86.3521 113.038 86.7249 114.307 86.7249 115.839C86.7249 117.148 86.372 118.318 85.6663 119.345C84.9615 120.352 83.974 121.148 82.7048 121.733C81.4356 122.297 79.9937 122.579 78.382 122.579ZM101.265 101.453H88.9029V99.0657H104.076V100.969L95.0384 122.095H92.2875L101.265 101.453ZM41.9703 145.637H45.8738C46.9799 145.637 47.936 145.85 48.7433 146.276C49.5382 146.673 50.1965 147.298 50.6338 148.071C51.0778 148.851 51.3007 149.767 51.3007 150.819C51.3007 151.879 51.0787 152.799 50.6338 153.579C50.1914 154.348 49.5345 154.972 48.7433 155.375C47.9275 155.792 46.9704 156 45.8738 156H41.9703V145.637ZM43.4663 153.933H45.833C46.4591 153.933 47.0026 153.811 47.4646 153.566C47.9275 153.312 48.2804 152.954 48.5261 152.491C48.7708 152.02 48.8932 151.467 48.8932 150.832C48.8932 150.198 48.766 149.645 48.5118 149.173C48.2768 148.711 47.9069 148.332 47.4513 148.085C46.9979 147.831 46.4581 147.704 45.833 147.704H43.5469L44.3096 147.051V154.667L43.4663 153.933ZM56.3861 156.205C55.6063 156.205 54.9082 156.041 54.2916 155.714C53.6945 155.389 53.1998 154.905 52.863 154.314C52.5187 153.716 52.346 153.026 52.346 152.246C52.346 151.494 52.5139 150.819 52.8488 150.22C53.1743 149.622 53.6658 149.131 54.2641 148.806C54.8807 148.461 55.5874 148.289 56.3861 148.289C57.1744 148.289 57.8725 148.452 58.4806 148.779C59.0972 149.105 59.5734 149.572 59.9082 150.18C60.2525 150.778 60.4252 151.467 60.4252 152.246C60.4252 152.999 60.2573 153.679 59.9224 154.287C59.5915 154.881 59.1013 155.37 58.5071 155.701C57.9 156.037 57.1924 156.205 56.3861 156.205ZM56.3861 154.355C56.7484 154.355 57.0662 154.269 57.3375 154.096C57.6193 153.915 57.8365 153.665 57.9911 153.349C58.1509 153.004 58.2298 152.627 58.2216 152.246C58.2216 151.829 58.14 151.462 57.9769 151.145C57.8335 150.84 57.6074 150.58 57.3242 150.397C57.0458 150.213 56.7185 150.119 56.3851 150.125C56.0323 150.125 55.7145 150.216 55.4337 150.397C55.1556 150.576 54.934 150.831 54.7944 151.131C54.6492 151.449 54.5762 151.821 54.5762 152.246C54.5762 152.664 54.6492 153.031 54.7944 153.349C54.949 153.665 55.1615 153.915 55.4337 154.096C55.7145 154.269 56.0313 154.355 56.3861 154.355ZM67.0786 151.961C67.0786 151.39 66.943 150.941 66.6707 150.615C66.3985 150.288 66.0181 150.125 65.5286 150.125C65.0211 150.125 64.6313 150.292 64.359 150.628C64.0868 150.955 63.9511 151.426 63.9511 152.042L63.2567 151.581C63.2567 150.918 63.3801 150.338 63.6248 149.839C63.8506 149.361 64.2157 148.963 64.672 148.697C65.1245 148.425 65.6557 148.289 66.2628 148.289C66.8889 148.289 67.4277 148.434 67.8811 148.725C68.344 149.005 68.6969 149.418 68.9426 149.961C69.1873 150.506 69.3097 151.149 69.3097 151.893V156H67.0786V151.961ZM61.7343 148.493H63.9511V156H61.7343V148.493ZM75.8398 151.581C75.8398 151.082 75.7089 150.7 75.4452 150.438C75.1919 150.175 74.8153 150.043 74.3164 150.043C73.9445 150.043 73.641 150.134 73.4057 150.315C73.2896 150.404 73.1942 150.517 73.126 150.646C73.0579 150.775 73.0187 150.918 73.0111 151.064H70.6984C70.7233 150.553 70.8982 150.061 71.2012 149.649C71.519 149.223 71.9506 148.892 72.4941 148.656C73.0472 148.412 73.677 148.289 74.3847 148.289C75.1549 148.289 75.8123 148.425 76.3568 148.697C76.8934 148.954 77.3357 149.372 77.6213 149.894C77.921 150.41 78.0709 151.031 78.0709 151.757V156H75.8398V151.581ZM73.3099 156.205C72.4581 156.205 71.7827 155.996 71.2837 155.579C70.7942 155.153 70.5495 154.577 70.5495 153.851C70.5495 153.117 70.8208 152.546 71.3653 152.137C71.9183 151.721 72.6706 151.512 73.623 151.512H76.316V152.804H74.1807C73.6912 152.804 73.3327 152.872 73.106 153.008C73.0036 153.067 72.9192 153.152 72.8617 153.255C72.8042 153.359 72.7758 153.475 72.7797 153.593C72.7776 153.71 72.8039 153.825 72.8561 153.929C72.9083 154.033 72.9849 154.123 73.0794 154.191C73.2881 154.336 73.5594 154.409 73.8952 154.409C74.2301 154.409 74.5431 154.327 74.8343 154.164C75.1331 153.992 75.3731 153.747 75.5543 153.43C75.744 153.112 75.8398 152.732 75.8398 152.287H76.6841C76.6841 153.076 76.5418 153.765 76.2619 154.355C76.0112 154.919 75.5994 155.397 75.0781 155.728C74.5706 156.045 73.9815 156.205 73.3099 156.205ZM82.1005 156.205C81.3568 156.205 80.7858 155.996 80.3874 155.579C79.989 155.161 79.7888 154.572 79.7888 153.811V146.575H82.0189V153.43C82.0284 153.765 82.0967 154.01 82.2229 154.164C82.35 154.309 82.5587 154.382 82.849 154.382C83.0482 154.382 83.2341 154.346 83.4067 154.273C83.5784 154.2 83.7378 154.101 83.8829 153.974V155.551C83.7198 155.732 83.4655 155.887 83.1212 156.014C82.7955 156.139 82.4495 156.204 82.1005 156.205ZM78.6325 148.493H83.8829V150.343H78.6325V148.493ZM84.9738 148.493H87.1907V156H84.9738V148.493ZM86.0893 147.841C85.709 147.841 85.3912 147.731 85.137 147.513C85.0192 147.413 84.9252 147.288 84.8617 147.147C84.7982 147.006 84.7669 146.852 84.7699 146.698C84.7699 146.371 84.8932 146.099 85.137 145.882C85.3912 145.664 85.709 145.556 86.0893 145.556C86.4697 145.556 86.7828 145.664 87.0285 145.882C87.2817 146.099 87.4079 146.371 87.4079 146.698C87.4079 147.024 87.2817 147.296 87.0285 147.513C86.7828 147.731 86.4707 147.841 86.0893 147.841ZM92.5426 156.205C91.7629 156.205 91.0647 156.041 90.4481 155.714C89.8514 155.389 89.3571 154.904 89.0205 154.314C88.6762 153.716 88.5035 153.026 88.5035 152.246C88.5035 151.494 88.6714 150.819 89.0063 150.22C89.3318 149.622 89.8233 149.131 90.4216 148.806C91.0382 148.461 91.7449 148.289 92.5426 148.289C93.3318 148.289 94.03 148.452 94.6371 148.779C95.2537 149.105 95.7299 149.572 96.0657 150.18C96.41 150.778 96.5827 151.467 96.5827 152.246C96.5827 152.999 96.4148 153.679 96.079 154.287C95.7484 154.881 95.2586 155.37 94.6646 155.701C94.0575 156.037 93.3499 156.205 92.5426 156.205ZM92.5426 154.355C92.9059 154.355 93.2228 154.269 93.495 154.096C93.7758 153.915 93.994 153.665 94.1476 153.349C94.3078 153.004 94.387 152.627 94.3791 152.246C94.3873 151.865 94.3033 151.487 94.1344 151.145C93.991 150.84 93.7649 150.58 93.4817 150.397C93.2033 150.213 92.8759 150.119 92.5426 150.125C92.1888 150.125 91.872 150.216 91.5912 150.397C91.3131 150.576 91.0914 150.831 90.9518 151.131C90.8067 151.449 90.7337 151.821 90.7337 152.246C90.7337 152.664 90.8067 153.031 90.9518 153.349C91.1055 153.665 91.3189 153.915 91.5912 154.096C91.872 154.269 92.1888 154.355 92.5426 154.355ZM103.236 151.961C103.236 151.39 103.1 150.941 102.828 150.615C102.556 150.288 102.176 150.125 101.685 150.125C101.178 150.125 100.788 150.292 100.516 150.628C100.244 150.955 100.108 151.426 100.108 152.042L99.4142 151.581C99.4142 150.918 99.5366 150.338 99.7813 149.839C100.007 149.361 100.372 148.963 100.829 148.697C101.282 148.425 101.812 148.289 102.42 148.289C103.045 148.289 103.585 148.434 104.039 148.725C104.501 149.005 104.854 149.418 105.099 149.961C105.344 150.506 105.466 151.149 105.466 151.893V156H103.236V151.961ZM97.8908 148.493H100.108V156H97.8908V148.493ZM110.365 156.205C109.631 156.205 108.982 156.086 108.42 155.851C107.867 155.606 107.45 155.275 107.169 154.858C106.897 154.432 106.797 153.951 106.869 153.416H109.086C109.07 153.566 109.093 153.717 109.153 153.855C109.212 153.994 109.307 154.114 109.427 154.205C109.689 154.414 110.034 154.518 110.46 154.518C110.831 154.518 111.126 154.455 111.344 154.327C111.57 154.2 111.684 154.032 111.684 153.824C111.686 153.739 111.668 153.655 111.63 153.58C111.592 153.504 111.536 153.438 111.467 153.389C111.33 153.28 111.045 153.181 110.609 153.09L109.44 152.872C108.615 152.718 107.993 152.45 107.577 152.07C107.169 151.68 106.965 151.186 106.965 150.587C106.965 150.134 107.101 149.735 107.373 149.39C107.644 149.037 108.026 148.765 108.515 148.575C109.014 148.384 109.59 148.289 110.242 148.289C110.886 148.289 111.467 148.407 111.983 148.642C112.51 148.878 112.917 149.205 113.208 149.622C113.498 150.03 113.629 150.478 113.602 150.968H111.425C111.444 150.705 111.33 150.483 111.086 150.302C110.85 150.111 110.546 150.016 110.174 150.016C109.857 150.016 109.603 150.075 109.412 150.193C109.231 150.31 109.141 150.465 109.141 150.656C109.141 150.819 109.213 150.955 109.358 151.064C109.513 151.163 109.776 151.258 110.148 151.349L111.371 151.635C112.178 151.807 112.786 152.083 113.193 152.465C113.602 152.835 113.806 153.316 113.806 153.905C113.806 154.368 113.666 154.771 113.384 155.116C113.103 155.461 112.699 155.728 112.174 155.918C111.657 156.109 111.054 156.205 110.365 156.205Z" fill="#1E2330"/>
</svg>
