<svg width="18" height="15" viewBox="0 0 18 15" fill="none" xmlns="http://www.w3.org/2000/svg">
<path d="M15.5312 7.1875C15.5312 10.9327 12.4952 13.9688 8.75 13.9688C5.00481 13.9688 1.96875 10.9327 1.96875 7.1875C1.96875 3.44231 5.00481 0.40625 8.75 0.40625C12.4952 0.40625 15.5312 3.44231 15.5312 7.1875ZM7.96562 10.7781L12.9969 5.74687C13.1677 5.57602 13.1677 5.299 12.9969 5.12816L12.3782 4.50945C12.2073 4.33858 11.9303 4.33858 11.7594 4.50945L7.65625 8.6126L5.74057 6.69693C5.56973 6.52608 5.29271 6.52608 5.12184 6.69693L4.50313 7.31563C4.33229 7.48648 4.33229 7.7635 4.50313 7.93434L7.34688 10.7781C7.51775 10.949 7.79475 10.949 7.96562 10.7781Z" fill="#38B2AC"/>
</svg>
