<svg width="16" height="13" viewBox="0 0 16 13" fill="none" xmlns="http://www.w3.org/2000/svg">
<path d="M12.4844 8.42188H11.7344C11.6349 8.42188 11.5395 8.46138 11.4692 8.53171C11.3989 8.60204 11.3594 8.69742 11.3594 8.79688V11.4219H3.85938V3.92188H7.23438C7.33383 3.92188 7.42921 3.88237 7.49954 3.81204C7.56987 3.74171 7.60938 3.64633 7.60938 3.54688V2.79688C7.60938 2.69742 7.56987 2.60204 7.49954 2.53171C7.42921 2.46138 7.33383 2.42188 7.23438 2.42188H3.48438C3.18601 2.42188 2.89986 2.5404 2.68888 2.75138C2.4779 2.96236 2.35938 3.24851 2.35938 3.54688V11.7969C2.35938 12.0952 2.4779 12.3814 2.68888 12.5924C2.89986 12.8033 3.18601 12.9219 3.48438 12.9219H11.7344C12.0327 12.9219 12.3189 12.8033 12.5299 12.5924C12.7408 12.3814 12.8594 12.0952 12.8594 11.7969V8.79688C12.8594 8.69742 12.8199 8.60204 12.7495 8.53171C12.6792 8.46138 12.5838 8.42188 12.4844 8.42188ZM13.7969 0.921875H10.7969C10.296 0.921875 10.0457 1.52914 10.3984 1.88281L11.2359 2.72023L5.52344 8.43055C5.471 8.4828 5.42939 8.5449 5.401 8.61327C5.37261 8.68165 5.35799 8.75495 5.35799 8.82898C5.35799 8.90302 5.37261 8.97632 5.401 9.04469C5.42939 9.11307 5.471 9.17516 5.52344 9.22742L6.05477 9.75781C6.10702 9.81025 6.16912 9.85186 6.23749 9.88025C6.30587 9.90864 6.37917 9.92326 6.4532 9.92326C6.52724 9.92326 6.60054 9.90864 6.66891 9.88025C6.73729 9.85186 6.79938 9.81025 6.85164 9.75781L12.5612 4.04656L13.3984 4.88281C13.75 5.23438 14.3594 4.98828 14.3594 4.48438V1.48438C14.3594 1.33519 14.3001 1.19212 14.1946 1.08663C14.0891 0.981138 13.9461 0.921875 13.7969 0.921875Z" fill="black"/>
</svg>
