<svg width="81" height="65" viewBox="0 0 81 65" fill="none" xmlns="http://www.w3.org/2000/svg">
<path d="M40.5 1.79688C23.375 1.79688 9.5 15.6719 9.5 32.7969C9.5 49.9219 23.375 63.7969 40.5 63.7969C57.625 63.7969 71.5 49.9219 71.5 32.7969C71.5 15.6719 57.625 1.79688 40.5 1.79688Z" fill="#E6FFFA"/>
<path d="M26.5 30.7969C28.7062 30.7969 30.5 29.0031 30.5 26.7969C30.5 24.5906 28.7062 22.7969 26.5 22.7969C24.2938 22.7969 22.5 24.5906 22.5 26.7969C22.5 29.0031 24.2938 30.7969 26.5 30.7969ZM54.5 30.7969C56.7062 30.7969 58.5 29.0031 58.5 26.7969C58.5 24.5906 56.7062 22.7969 54.5 22.7969C52.2938 22.7969 50.5 24.5906 50.5 26.7969C50.5 29.0031 52.2938 30.7969 54.5 30.7969ZM56.5 32.7969H52.5C51.4 32.7969 50.4062 33.2406 49.6812 33.9594C52.2 35.3406 53.9875 37.8344 54.375 40.7969H58.5C59.6063 40.7969 60.5 39.9031 60.5 38.7969V36.7969C60.5 34.5906 58.7062 32.7969 56.5 32.7969ZM40.5 32.7969C44.3688 32.7969 47.5 29.6656 47.5 25.7969C47.5 21.9281 44.3688 18.7969 40.5 18.7969C36.6312 18.7969 33.5 21.9281 33.5 25.7969C33.5 29.6656 36.6312 32.7969 40.5 32.7969ZM45.3 34.7969H44.7812C43.4813 35.4219 42.0375 35.7969 40.5 35.7969C38.9625 35.7969 37.525 35.4219 36.2188 34.7969H35.7C31.725 34.7969 28.5 38.0219 28.5 41.9969V43.7969C28.5 45.4531 29.8438 46.7969 31.5 46.7969H49.5C51.1562 46.7969 52.5 45.4531 52.5 43.7969V41.9969C52.5 38.0219 49.275 34.7969 45.3 34.7969ZM31.3188 33.9594C30.5938 33.2406 29.6 32.7969 28.5 32.7969H24.5C22.2938 32.7969 20.5 34.5906 20.5 36.7969V38.7969C20.5 39.9031 21.3937 40.7969 22.5 40.7969H26.6188C27.0125 37.8344 28.8 35.3406 31.3188 33.9594Z" fill="#38B2AC"/>
</svg>
