<svg width="155" height="205" viewBox="0 0 155 205" fill="none" xmlns="http://www.w3.org/2000/svg">
<g clip-path="url(#clip0_4_280)">
<path d="M123.715 6.2157H30.7534C13.9888 6.2157 0.398438 19.8061 0.398438 36.5707V167.476C0.398438 184.241 13.9888 197.831 30.7534 197.831H123.715C140.48 197.831 154.07 184.241 154.07 167.476V36.5707C154.07 19.8061 140.48 6.2157 123.715 6.2157Z" fill="#D717E7"/>
<path fill-rule="evenodd" clip-rule="evenodd" d="M67.0342 42.4813L66.2327 42.8133L59.4312 49.6147L59.0992 49.9467V52.6815C59.0992 54.4696 60.0004 55.9893 61.3664 57.0033V74.2108H59.1002V76.4779H93.1025V74.2108H90.8354V57.0033C92.2013 55.9893 93.1025 54.4706 93.1025 52.6815V50.0046L92.8407 49.6887L87.1728 42.8882L86.302 42.4803L67.0342 42.4813ZM63.6335 74.2117V58.097C64.2494 58.2647 64.8848 58.3496 65.5231 58.3494C67.6385 58.3494 69.6239 57.4159 70.8125 55.9096C72.0001 57.4159 73.9865 58.3494 76.1018 58.3494C78.2172 58.3494 80.2026 57.4159 81.3912 55.9096C82.5788 57.4159 84.5642 58.3494 86.6805 58.3494C87.3284 58.3494 87.964 58.2621 88.5682 58.097V74.2117H81.7687V64.0162L80.6351 62.8827H71.5675L70.434 64.0162V74.2117H63.6335ZM72.7021 74.2117H79.5016V65.1498H72.7011L72.7021 74.2117ZM89.5491 49.2827L85.7718 44.7475H67.5038L62.9695 49.2818H89.55L89.5491 49.2827ZM61.3664 51.5498V52.6825C61.3664 54.4023 63.0577 56.0822 65.5231 56.0822C67.9885 56.0822 69.6779 54.4032 69.6779 52.6825H71.9451C71.9451 54.4023 73.6364 56.0822 76.1018 56.0822C78.5672 56.0822 80.2566 54.4032 80.2566 52.6825H82.5238C82.5238 54.4023 84.2151 56.0822 86.6805 56.0822C89.1459 56.0822 90.8354 54.4032 90.8354 52.6825V51.5489H61.3683L61.3664 51.5498Z" fill="white"/>
<path d="M40.6339 126.905H43.0822V123.52C47.9789 123.308 51.0315 121.012 51.0315 117.445C51.0315 114.362 48.8857 112.155 45.0771 111.128L43.0822 110.584V102.061C45.5609 102.634 47.5558 104.509 47.9182 106.805H50.579C50.1559 103.118 46.9221 100.216 43.0832 99.7033V96.3177H40.6358V99.6729C36.1319 100.005 33.3506 102.363 33.3506 106.05C33.3506 109.012 35.466 111.007 39.6986 112.035L40.6349 112.277V121.132C37.7037 120.558 35.7686 118.563 35.4669 115.601H32.6857C33.1391 119.983 36.1623 122.885 40.6349 123.46L40.6339 126.905ZM35.8891 105.959C35.8891 103.632 37.7331 102.152 40.6339 101.91V109.919C37.4305 108.981 35.8891 107.682 35.8891 105.959ZM43.0822 121.284V112.881L43.7472 113.032C47.0417 113.848 48.5528 115.178 48.5528 117.173C48.5528 119.591 46.4374 121.132 43.0822 121.284ZM58.0453 123.097H60.524V100.066H58.0444V100.096C58.0444 102.302 56.3521 103.39 53.6619 103.39H52.7854V105.748H53.9332C55.6264 105.748 57.0474 105.143 58.0444 104.086L58.0453 123.097ZM63.3167 127.389H64.9483L66.6718 119.56H63.3167V127.389ZM76.7487 123.55C81.6757 123.55 84.789 120.497 84.789 115.571C84.789 110.705 81.7364 107.652 76.8702 107.652C73.8774 107.652 71.2175 109.284 70.2509 111.641C70.7043 105.325 73.1223 101.849 77.0808 101.849C79.7719 101.849 81.5847 103.299 82.0077 105.778H84.6069C83.9125 101.969 81.1009 99.6122 77.0817 99.6122C71.3996 99.6122 68.1346 103.905 68.1346 111.641C68.1346 119.289 71.2479 123.55 76.7487 123.55ZM71.0363 115.571C71.0363 112.247 73.3338 109.888 76.6283 109.888C79.9531 109.888 82.28 112.247 82.28 115.571C82.28 118.956 79.9531 121.344 76.6283 121.344C73.3338 121.344 71.0363 118.956 71.0363 115.571ZM88.0323 120.044V123.097H103.84V120.709H91.4785C100.243 115.118 103.719 111.309 103.719 106.957C103.719 102.634 100.515 99.6122 95.9511 99.6122C91.5383 99.6122 88.2134 102.575 87.8814 106.805H90.4199C90.601 103.905 92.8682 101.879 95.9208 101.879C99.034 101.879 101.21 103.964 101.21 106.957C101.21 110.523 97.9156 113.878 88.0323 120.044ZM109.98 123.097H112.73L121.767 101.969V100.066H106.594V102.453H118.956L109.98 123.097ZM63.0767 157.209C65.8105 157.209 67.4421 156.079 67.4421 154.189C67.4421 152.584 66.4224 151.66 64.4227 151.197L62.6963 150.775C61.5675 150.503 61.0903 150.149 61.0903 149.564C61.0903 148.803 61.8521 148.45 62.7902 148.45C63.8925 148.45 64.7348 149.034 64.8041 149.864H67.1974C67.1841 148.055 65.3201 146.437 62.9002 146.437C60.4652 146.437 58.7378 147.701 58.7378 149.497C58.7378 151.128 59.6352 152.027 61.9061 152.475L63.5121 152.802C64.9397 153.087 65.1845 153.536 65.1845 154.094C65.1845 154.828 64.4502 155.318 63.2123 155.318C61.8938 155.318 61.023 154.651 60.9955 153.617H58.5604C58.4523 155.794 60.2347 157.209 63.0767 157.209ZM71.1767 157.209C72.2515 157.209 73.1356 156.773 73.7332 156.025V157.004H75.8144V152.761C75.8144 150.585 74.4275 149.293 72.1832 149.293C70.0754 149.293 68.6468 150.517 68.5652 152.053H70.7138C70.7963 151.387 71.3266 150.993 72.1149 150.993C73.1356 150.993 73.6924 151.523 73.7341 152.516H71.503C69.5992 152.516 68.4011 153.373 68.4011 154.883C68.4011 156.311 69.4768 157.209 71.1767 157.209ZM70.4966 154.651C70.4966 154.121 70.9045 153.821 71.9925 153.821H73.6791C73.5898 154.291 73.3401 154.714 72.9729 155.019C72.6057 155.325 72.1437 155.493 71.6662 155.495C70.9595 155.495 70.4966 155.168 70.4966 154.651ZM77.3245 157.004H79.4058V146.641H77.3245V157.004ZM84.5196 157.209C86.6407 157.209 88.1508 155.93 88.2191 154.393H86.1379C85.988 155.019 85.3354 155.441 84.5329 155.441C83.4581 155.441 82.8065 154.828 82.6831 153.686H88.2732V153.441C88.2732 150.394 86.3827 149.293 84.4238 149.293C81.9764 149.293 80.5887 151.088 80.5887 153.25C80.5887 155.658 82.058 157.209 84.5196 157.209ZM82.7647 152.366C83.0095 151.537 83.5947 151.006 84.4248 151.006C85.2946 151.006 85.9065 151.551 86.0971 152.366H82.7647ZM92.7895 157.209C94.8156 157.209 96.1351 156.311 96.1351 154.937C96.1351 153.74 95.3193 153.019 93.8092 152.679L92.557 152.38C91.7555 152.19 91.4832 151.986 91.4832 151.645C91.4832 151.237 91.9319 150.952 92.5855 150.952C93.3871 150.952 93.9448 151.414 93.9183 151.972H95.9578C96.0261 150.476 94.5709 149.293 92.6661 149.293C90.749 149.293 89.4703 150.218 89.4703 151.591C89.4703 152.774 90.2728 153.536 91.8911 153.849L93.075 154.08C94.0406 154.284 94.1763 154.529 94.1763 154.855C94.1763 155.291 93.6735 155.604 92.8843 155.604C91.9869 155.604 91.3741 155.1 91.4292 154.42H89.348C89.1848 156.038 90.6267 157.209 92.7895 157.209Z" fill="white"/>
</g>
<defs>
<clipPath id="clip0_4_280">
<rect width="153.672" height="203.969" fill="white" transform="translate(0.398438 0.0390625)"/>
</clipPath>
</defs>
</svg>
