<svg width="48" height="49" viewBox="0 0 48 49" fill="none" xmlns="http://www.w3.org/2000/svg">
<g clip-path="url(#clip0_4_333)">
<path d="M45.0327 11.226C43.5491 11.8806 41.9346 12.3169 40.2327 12.5351C41.9804 11.5098 43.2921 9.87985 43.92 7.95331C42.3055 8.89149 40.5164 9.58968 38.6182 9.96059C37.3562 8.65581 35.7045 7.79622 33.9117 7.51117C32.119 7.22613 30.2821 7.53105 28.6776 8.38005C27.0732 9.22906 25.7878 10.5762 25.015 12.2188C24.2423 13.8613 24.0239 15.7105 24.3927 17.4879C21.0849 17.3276 17.847 16.4783 14.8864 14.9942C11.9258 13.5101 9.30774 11.4241 7.20001 8.86968C6.12592 10.6876 5.79412 12.8496 6.27366 14.9059C6.75319 16.9622 8.00713 18.7544 9.77456 19.9097C8.45309 19.8705 7.15966 19.5191 6.00001 18.8842V18.9933C6.00467 20.9123 6.67488 22.7703 7.89635 24.2504C9.11783 25.7305 10.8149 26.741 12.6982 27.1097C11.4658 27.4363 10.1757 27.481 8.92365 27.2406C9.99274 30.5133 13.0691 32.9133 16.7127 32.9788C13.2053 35.6954 8.76762 36.9185 4.36365 36.3824C8.07274 38.7388 12.4364 40.0915 17.1491 40.0915C32.5091 40.0915 40.8873 27.5024 40.8873 16.5715V15.5024C42.5128 14.3352 43.9166 12.887 45.0327 11.226Z" fill="#780016"/>
</g>
<defs>
<clipPath id="clip0_4_333">
<rect width="48" height="48" fill="white" transform="translate(0 0.796875)"/>
</clipPath>
</defs>
</svg>
