<svg width="48" height="49" viewBox="0 0 48 49" fill="none" xmlns="http://www.w3.org/2000/svg">
<g clip-path="url(#clip0_4_339)">
<path d="M24.6546 5.1604C13.5273 5.1604 4.36365 14.324 4.36365 25.4513C4.36365 36.7968 13.5273 45.7422 24.6546 45.7422C36 45.7422 44.9455 36.5786 44.9455 25.4513C44.9455 14.324 36 5.1604 24.6546 5.1604ZM34.0364 34.6149C33.6 35.2695 32.9455 35.4877 32.2909 35.0513C27.4909 32.2149 21.6 31.5604 14.4 33.0877C13.7455 33.3059 13.0909 32.8695 12.8727 32.2149C12.6546 31.5604 13.0909 30.9059 13.7455 30.6877C21.6 28.9422 28.1455 29.5968 33.6 32.8695C34.2546 33.0877 34.4727 33.9604 34.0364 34.6149ZM36.4364 28.9422C36 29.5968 34.9091 29.8149 34.2546 29.3786C28.8 26.1059 20.5091 25.0149 13.9636 26.9786C13.0909 27.4149 12.2182 26.9786 12 26.1059C11.7818 25.2331 12.2182 24.3604 13.0909 24.1422C20.5091 21.9604 29.6727 23.0513 36 26.7604C36.6546 27.1968 36.8727 28.2877 36.4364 28.9422ZM36.6546 23.2695C30.1091 19.3422 19.2 19.124 13.0909 20.8695C12 21.0877 10.9091 20.6513 10.6909 19.5604C10.4727 18.4695 10.9091 17.5968 12 17.1604C19.2 14.9786 31.2 15.4149 38.6182 19.7786C39.4909 20.4331 39.9273 21.524 39.2727 22.6149C38.8364 23.4877 37.5273 23.7059 36.6546 23.2695Z" fill="#780016"/>
</g>
<defs>
<clipPath id="clip0_4_339">
<rect width="48" height="48" fill="white" transform="translate(0 0.796875)"/>
</clipPath>
</defs>
</svg>
