<svg width="120" height="122" viewBox="0 0 120 122" fill="none" xmlns="http://www.w3.org/2000/svg">
<path d="M41.2502 75.9361C54.7121 75.9361 65.6252 64.9487 65.6252 51.3951C65.6252 37.8414 54.7121 26.854 41.2502 26.854C27.7882 26.854 16.8752 37.8414 16.8752 51.3951C16.8752 64.9487 27.7882 75.9361 41.2502 75.9361Z" stroke="black" stroke-width="2" stroke-miterlimit="10"/>
<path d="M72.8496 27.7684C76.2022 26.8174 79.7183 26.6007 83.1611 27.133C86.6038 27.6654 89.8933 28.9343 92.808 30.8544C95.7226 32.7744 98.1948 35.301 100.058 38.264C101.921 41.227 103.132 44.5576 103.609 48.0314C104.086 51.5052 103.818 55.0416 102.823 58.4024C101.828 61.7632 100.13 64.8703 97.8417 67.5145C95.5538 70.1587 92.7296 72.2786 89.5594 73.7313C86.3892 75.184 82.9466 75.9359 79.4635 75.9363" stroke="black" stroke-width="2" stroke-linecap="round" stroke-linejoin="round"/>
<path d="M7.49817 93.5854C11.305 88.1335 16.3589 83.6838 22.2331 80.612C28.1073 77.5403 34.6293 75.9365 41.2486 75.9363C47.8678 75.936 54.39 77.5392 60.2644 80.6106C66.1388 83.6819 71.193 88.1312 75.0003 93.5828" stroke="black" stroke-width="2" stroke-linecap="round" stroke-linejoin="round"/>
<path d="M79.4635 75.9363C86.0834 75.9315 92.6069 77.5327 98.4818 80.6044C104.357 83.6762 109.41 88.1279 113.214 93.5828" stroke="black" stroke-width="2" stroke-linecap="round" stroke-linejoin="round"/>
</svg>
