<svg width="27" height="22" viewBox="0 0 27 22" fill="none" xmlns="http://www.w3.org/2000/svg">
<path d="M15.9937 13.7984H10.6625C9.92652 13.7984 9.32967 14.3953 9.32967 15.1312V20.4625C9.32967 21.1984 9.92652 21.7953 10.6625 21.7953H15.9937C16.7297 21.7953 17.3265 21.1984 17.3265 20.4625V15.1312C17.3265 14.3953 16.7297 13.7984 15.9937 13.7984ZM7.99686 1.80315C7.99686 1.06719 7.40001 0.470337 6.66405 0.470337H1.33281C0.596849 0.470337 0 1.06719 0 1.80315V7.13439C0 7.87035 0.596849 8.4672 1.33281 8.4672H5.31958L8.36672 13.8001C8.82903 13.0062 9.67953 12.4656 10.6625 12.4656H10.6741L7.99686 7.78038V5.80158H17.3265V3.13596H7.99686V1.80315ZM25.3234 0.470337H19.9922C19.2562 0.470337 18.6593 1.06719 18.6593 1.80315V7.13439C18.6593 7.87035 19.2562 8.4672 19.9922 8.4672H25.3234C26.0594 8.4672 26.6562 7.87035 26.6562 7.13439V1.80315C26.6562 1.06719 26.0594 0.470337 25.3234 0.470337Z" fill="#161C2D"/>
</svg>
