<svg width="19" height="15" viewBox="0 0 19 15" fill="none" xmlns="http://www.w3.org/2000/svg">
<path d="M9.70312 5.125C8.25664 5.125 7.07812 6.30352 7.07812 7.75C7.07812 9.19648 8.25664 10.375 9.70312 10.375C11.1496 10.375 12.3281 9.19648 12.3281 7.75C12.3281 6.30352 11.1496 5.125 9.70312 5.125ZM16.4406 7.32617L13.8512 6.03281L14.7672 3.2875C14.8902 2.91563 14.5375 2.56289 14.1684 2.68867L11.423 3.60469L10.127 1.0125C9.95195 0.6625 9.4543 0.6625 9.2793 1.0125L7.98594 3.60195L5.23789 2.68594C4.86602 2.56289 4.51328 2.91562 4.63906 3.28477L5.55508 6.03008L2.96563 7.32617C2.61563 7.50117 2.61563 7.99883 2.96563 8.17383L5.55508 9.46719L4.63906 12.2152C4.51602 12.5871 4.86875 12.9398 5.23789 12.8141L7.9832 11.898L9.27656 14.4875C9.45156 14.8375 9.94922 14.8375 10.1242 14.4875L11.4176 11.898L14.1629 12.8141C14.5348 12.9371 14.8875 12.5844 14.7617 12.2152L13.8457 9.46992L16.4352 8.17656C16.7906 7.99883 16.7906 7.50117 16.4406 7.32617ZM12.1777 10.2246C10.8133 11.5891 8.59297 11.5891 7.22852 10.2246C5.86406 8.86016 5.86406 6.63984 7.22852 5.27539C8.59297 3.91094 10.8133 3.91094 12.1777 5.27539C13.5422 6.63984 13.5422 8.86016 12.1777 10.2246Z" fill="white"/>
</svg>
