<svg width="18" height="15" viewBox="0 0 18 15" fill="none" xmlns="http://www.w3.org/2000/svg">
<path d="M15.7109 7.1875C15.7109 10.9327 12.6749 13.9688 8.92969 13.9688C5.1845 13.9688 2.14844 10.9327 2.14844 7.1875C2.14844 3.44231 5.1845 0.40625 8.92969 0.40625C12.6749 0.40625 15.7109 3.44231 15.7109 7.1875ZM8.1453 10.7781L13.1766 5.74687C13.3474 5.57602 13.3474 5.299 13.1766 5.12816L12.5578 4.50945C12.387 4.33858 12.11 4.33858 11.9391 4.50945L7.83594 8.6126L5.92026 6.69693C5.74942 6.52608 5.4724 6.52608 5.30153 6.69693L4.68282 7.31563C4.51198 7.48648 4.51198 7.7635 4.68282 7.93434L7.52657 10.7781C7.69744 10.949 7.97443 10.949 8.1453 10.7781Z" fill="#38B2AC"/>
</svg>
