<svg width="308" height="205" viewBox="0 0 308 205" fill="none" xmlns="http://www.w3.org/2000/svg">
<path d="M277.401 6.53906H30.7549C13.9895 6.53906 0.398438 20.1301 0.398438 36.8955V167.808C0.398438 184.573 13.9895 198.164 30.7549 198.164H277.401C294.166 198.164 307.757 184.573 307.757 167.808V36.8955C307.757 20.1301 294.166 6.53906 277.401 6.53906Z" fill="#70764D"/>
<path opacity="0.25" d="M36.2134 58.958V142.9M54.9917 58.957V142.9M73.622 58.957V142.9M92.2476 58.957V142.9M110.878 58.957V142.9M129.508 58.957V142.9M148.138 58.957V142.9" stroke="white" stroke-width="2.23879"/>
<path d="M36.9599 140.848C55.8492 140.848 49.6783 87.3365 61.6919 87.3365C73.7054 87.3365 69.8255 126.522 82.302 126.522C94.7775 126.522 92.018 100.388 103.578 100.388C112.399 100.388 121.019 107.93 125.931 95.8363C130.843 83.7411 132.188 60.2623 148.138 60.2623" stroke="#D2E823" stroke-width="2.09839" stroke-linecap="square" stroke-linejoin="round"/>
<path d="M206.506 74.14C209.232 74.14 211.331 75.1645 212.803 77.2136C214.277 79.2437 215.013 82.1389 215.013 85.8993C215.013 89.7005 214.237 92.6347 212.685 94.7046C211.153 96.7537 208.983 97.7782 206.178 97.7782C204.208 97.7782 202.556 97.2413 201.223 96.1674C199.91 95.0727 199.084 93.5805 198.747 91.6898H201.313C201.532 92.9231 202.059 93.8783 202.895 94.5547C203.751 95.232 204.844 95.5698 206.178 95.5698C208.128 95.5698 209.68 94.7444 210.834 93.0929C212.008 91.4214 212.705 89.0232 212.923 85.8993C212.446 87.0737 211.6 88.029 210.386 88.7642C209.192 89.4814 207.859 89.839 206.387 89.839C204.795 89.839 203.412 89.5212 202.238 88.8847C201.084 88.2681 200.139 87.3229 199.522 86.1687C198.885 84.9943 198.567 83.6112 198.567 82.0194C198.567 80.4077 198.885 79.0151 199.522 77.8416C200.155 76.6711 201.121 75.7152 202.298 75.0953C203.492 74.4587 204.895 74.14 206.506 74.14ZM201.044 82.0194C201.044 83.0942 201.283 84.059 201.76 84.9146C202.219 85.7509 202.901 86.4432 203.731 86.9144C204.586 87.3925 205.551 87.6306 206.626 87.6306C207.7 87.6306 208.655 87.3925 209.491 86.9144C210.316 86.4479 210.989 85.7537 211.431 84.9146C211.909 84.059 212.147 83.0933 212.147 82.0194C212.147 80.9256 211.909 79.9504 211.431 79.0947C210.996 78.243 210.322 77.5372 209.491 77.0647C208.655 76.5676 207.7 76.319 206.626 76.319C205.551 76.319 204.586 76.5676 203.731 77.0647C202.895 77.5418 202.212 78.2457 201.76 79.0947C201.283 79.9504 201.044 80.9256 201.044 82.0194ZM223.259 78.5569C222.762 79.0942 222.15 79.5125 221.469 79.7806C220.792 80.0595 220.036 80.199 219.2 80.199H218.066V77.871H218.932C220.285 77.871 221.339 77.6025 222.095 77.0647C222.871 76.5078 223.259 75.692 223.259 74.6172V74.5887H225.707V97.3314H223.259V78.5569ZM232.315 82.4083C231.603 82.4144 230.902 82.2287 230.286 81.8705C229.674 81.4986 229.17 80.9738 228.823 80.3479C228.465 79.7105 228.28 78.9902 228.286 78.259C228.286 77.5029 228.465 76.8171 228.823 76.2004C229.166 75.5787 229.671 75.0624 230.286 74.7073C230.895 74.3312 231.599 74.1345 232.315 74.14C233.051 74.14 233.728 74.3297 234.344 74.7073C234.959 75.0622 235.464 75.5781 235.807 76.1995C236.168 76.8253 236.353 77.5367 236.344 78.259C236.344 79.0151 236.166 79.7114 235.807 80.3479C235.46 80.9738 234.956 81.4986 234.344 81.8705C233.728 82.2283 233.027 82.4147 232.315 82.4083ZM230.196 78.259C230.196 78.8756 230.395 79.3936 230.792 79.811C231.211 80.2284 231.728 80.4371 232.344 80.4371C232.922 80.4371 233.41 80.2284 233.807 79.811C234.226 79.3936 234.434 78.8756 234.434 78.259C234.434 77.6424 234.226 77.1244 233.807 76.707C233.39 76.2688 232.892 76.0506 232.315 76.0506C231.718 76.0506 231.211 76.2688 230.792 76.707C230.395 77.1244 230.196 77.6424 230.196 78.259ZM243.686 74.5878H246.522L230.554 97.3304H227.689L243.686 74.5878ZM241.895 97.7791C241.183 97.7853 240.482 97.5995 239.866 97.2413C239.255 96.8688 238.751 96.3442 238.403 95.7187C238.045 95.0811 237.86 94.361 237.866 93.6298C237.866 92.8737 238.046 92.1879 238.403 91.5712C238.746 90.95 239.252 90.4338 239.866 90.0781C240.476 89.7019 241.179 89.5053 241.895 89.5108C242.632 89.5108 243.309 89.7005 243.925 90.0781C244.542 90.4367 245.03 90.9338 245.388 91.5703C245.748 92.1963 245.934 92.9076 245.925 93.6298C245.925 94.3859 245.746 95.0822 245.388 95.7196C245.04 96.3448 244.536 96.8691 243.925 97.2413C243.309 97.5996 242.608 97.7854 241.895 97.7791ZM239.777 93.6298C239.777 94.2464 239.975 94.7644 240.374 95.1818C240.791 95.5992 241.309 95.8079 241.926 95.8079C242.502 95.8079 242.99 95.5992 243.388 95.1818C243.806 94.7644 244.015 94.2464 244.015 93.6298C244.015 93.0132 243.806 92.4962 243.388 92.0778C242.97 91.6405 242.473 91.4214 241.895 91.4214C241.299 91.4214 240.791 91.6395 240.374 92.0778C239.975 92.4952 239.777 93.0132 239.777 93.6298ZM212.49 132.238C215.002 132.238 216.937 130.747 217.286 128.572H214.976C214.693 129.633 213.74 130.304 212.49 130.304C210.879 130.304 209.657 128.948 209.657 126.919C209.657 124.919 210.852 123.535 212.49 123.535C213.753 123.535 214.693 124.18 214.948 125.227H217.286C216.95 123.078 215.016 121.601 212.49 121.601C209.308 121.601 207.387 123.964 207.387 126.919C207.387 130.103 209.442 132.238 212.49 132.238ZM221.279 132.036H223.455V123.723H227.162V121.802H217.545V123.723H221.279V132.036ZM234.704 132.036H237.162L234.73 128.156C235.872 127.618 236.557 126.544 236.557 125.174C236.557 123.172 235.066 121.802 232.863 121.802H228.431V132.036H230.594V128.544H232.676L234.704 132.036ZM230.594 126.651V123.696H232.824C233.75 123.696 234.381 124.287 234.381 125.174C234.381 126.047 233.75 126.651 232.824 126.651H230.594Z" fill="#D2E823"/>
</svg>
