<svg width="17" height="14" viewBox="0 0 17 14" fill="none" xmlns="http://www.w3.org/2000/svg">
<path d="M12.2783 11.5H10.2686C10.1106 11.5 9.98145 11.3708 9.98145 11.2129V10.2559C9.98145 10.0979 10.1106 9.96875 10.2686 9.96875H12.2783C12.7018 9.96875 13.0439 9.62661 13.0439 9.20313V4.60938C13.0439 4.18589 12.7018 3.84375 12.2783 3.84375H10.2686C10.1106 3.84375 9.98145 3.71455 9.98145 3.55664V2.59961C9.98145 2.4417 10.1106 2.3125 10.2686 2.3125H12.2783C13.5464 2.3125 14.5752 3.34131 14.5752 4.60938V9.20313C14.5752 10.4712 13.5464 11.5 12.2783 11.5ZM11.1538 6.69092L7.13428 2.67139C6.77539 2.3125 6.15332 2.56372 6.15332 3.07813V5.375H2.89941C2.5812 5.375 2.3252 5.63101 2.3252 5.94922V8.24609C2.3252 8.56431 2.5812 8.82031 2.89941 8.82031H6.15332V11.1172C6.15332 11.6316 6.77539 11.8828 7.13428 11.5239L11.1538 7.50439C11.3763 7.27949 11.3763 6.91582 11.1538 6.69092Z" fill="#212121"/>
</svg>
