<svg width="17" height="15" viewBox="0 0 17 15" fill="none" xmlns="http://www.w3.org/2000/svg">
<path d="M15.2109 7.1875C15.2109 10.9327 12.1749 13.9688 8.42969 13.9688C4.6845 13.9688 1.64844 10.9327 1.64844 7.1875C1.64844 3.44231 4.6845 0.40625 8.42969 0.40625C12.1749 0.40625 15.2109 3.44231 15.2109 7.1875ZM7.6453 10.7781L12.6766 5.74687C12.8474 5.57602 12.8474 5.299 12.6766 5.12816L12.0578 4.50945C11.887 4.33858 11.61 4.33858 11.4391 4.50945L7.33594 8.6126L5.42026 6.69693C5.24942 6.52608 4.9724 6.52608 4.80153 6.69693L4.18282 7.31563C4.01198 7.48648 4.01198 7.7635 4.18282 7.93434L7.02657 10.7781C7.19744 10.949 7.47443 10.949 7.6453 10.7781Z" fill="#38B2AC"/>
</svg>
