<svg width="19" height="15" viewBox="0 0 19 15" fill="none" xmlns="http://www.w3.org/2000/svg">
<path d="M5.01836 7.20859C4.92266 6.87773 4.80508 6.30078 4.80508 6.30078H4.79141C4.79141 6.30078 4.67383 6.87773 4.57812 7.20859L4.27461 8.23398H5.31641L5.01836 7.20859ZM17.7031 3.375H10.0469V12.125H17.7031C18.0668 12.125 18.3594 11.8324 18.3594 11.4688V4.03125C18.3594 3.66758 18.0668 3.375 17.7031 3.375ZM17.0469 6.65625C17.0469 6.83672 16.8992 6.98438 16.7188 6.98438H16.407C16.2184 7.62969 15.8137 8.28047 15.2395 8.8957C15.4691 9.0707 15.707 9.2375 15.9531 9.38789C16.1035 9.48086 16.1527 9.675 16.0652 9.83086L15.8492 10.2109C15.7563 10.3723 15.5512 10.4242 15.3926 10.3285C15.048 10.1152 14.7227 9.88828 14.4246 9.64766C14.1266 9.88555 13.8039 10.1152 13.4566 10.3285C13.298 10.4242 13.093 10.3723 13 10.2109L12.784 9.83086C12.6965 9.67773 12.7457 9.48086 12.8988 9.38789C13.1531 9.23203 13.391 9.06797 13.6125 8.8957C13.3965 8.66602 13.2051 8.43086 13.0383 8.19297C12.9289 8.03711 12.9781 7.82109 13.1395 7.72539L13.3172 7.61875L13.5168 7.50117C13.6645 7.41367 13.8559 7.45469 13.9543 7.59414C14.091 7.78555 14.2496 7.97695 14.4301 8.16563C14.7992 7.77734 15.0809 7.37539 15.2504 6.98438H12.125C11.9445 6.98438 11.7969 6.83672 11.7969 6.65625V6.21875C11.7969 6.03828 11.9445 5.89062 12.125 5.89062H13.875V5.45312C13.875 5.27266 14.0227 5.125 14.2031 5.125H14.6406C14.8211 5.125 14.9688 5.27266 14.9688 5.45312V5.89062H16.7188C16.8992 5.89062 17.0469 6.03828 17.0469 6.21875V6.65625ZM0.859375 4.03125V11.4688C0.859375 11.8324 1.15195 12.125 1.51562 12.125H9.17188V3.375H1.51562C1.15195 3.375 0.859375 3.66758 0.859375 4.03125ZM2.46992 9.94023L4.04219 5.31641C4.08867 5.18242 4.21172 5.09492 4.35391 5.09492H5.24258C5.38203 5.09492 5.50781 5.18516 5.5543 5.31641L7.12656 9.94023C7.19766 10.1535 7.0418 10.375 6.81484 10.375H6.18867C6.11791 10.375 6.04906 10.352 5.99239 10.3096C5.93572 10.2673 5.89427 10.2077 5.87422 10.1398L5.61719 9.26758H3.97109L3.72227 10.1371C3.68125 10.2766 3.55273 10.375 3.40781 10.375H2.78164C2.55742 10.375 2.39883 10.1535 2.46992 9.94023Z" fill="white"/>
</svg>
