<svg width="27" height="22" viewBox="0 0 27 22" fill="none" xmlns="http://www.w3.org/2000/svg">
<path d="M13.676 5.87353C11.0267 5.87353 8.88968 8.0105 8.88968 10.6599C8.88968 13.3092 11.0267 15.4462 13.676 15.4462C16.3254 15.4462 18.4623 13.3092 18.4623 10.6599C18.4623 8.0105 16.3254 5.87353 13.676 5.87353ZM13.676 13.7716C11.9639 13.7716 10.5643 12.3761 10.5643 10.6599C10.5643 8.94361 11.9598 7.54811 13.676 7.54811C15.3923 7.54811 16.7877 8.94361 16.7877 10.6599C16.7877 12.3761 15.3881 13.7716 13.676 13.7716ZM19.7745 5.67774C19.7745 6.29842 19.2746 6.79413 18.6581 6.79413C18.0374 6.79413 17.5417 6.29426 17.5417 5.67774C17.5417 5.06122 18.0416 4.56135 18.6581 4.56135C19.2746 4.56135 19.7745 5.06122 19.7745 5.67774ZM22.9446 6.8108C22.8738 5.31533 22.5322 3.99065 21.4366 2.89926C20.3452 1.80786 19.0205 1.46627 17.5251 1.39129C15.9838 1.30381 11.3641 1.30381 9.82279 1.39129C8.33149 1.46211 7.00681 1.80369 5.91125 2.89509C4.81568 3.98649 4.47827 5.31116 4.40329 6.80663C4.31581 8.34792 4.31581 12.9676 4.40329 14.5089C4.4741 16.0044 4.81568 17.329 5.91125 18.4204C7.00681 19.5118 8.32732 19.8534 9.82279 19.9284C11.3641 20.0159 15.9838 20.0159 17.5251 19.9284C19.0205 19.8576 20.3452 19.516 21.4366 18.4204C22.528 17.329 22.8696 16.0044 22.9446 14.5089C23.032 12.9676 23.032 8.35208 22.9446 6.8108ZM20.9534 16.1627C20.6285 16.9791 19.9995 17.6081 19.1788 17.9372C17.95 18.4246 15.034 18.3121 13.676 18.3121C12.318 18.3121 9.39789 18.4204 8.17319 17.9372C7.35673 17.6123 6.72772 16.9833 6.39863 16.1627C5.91125 14.9338 6.02372 12.0179 6.02372 10.6599C6.02372 9.30185 5.91541 6.38173 6.39863 5.15703C6.72355 4.34057 7.35256 3.71156 8.17319 3.38247C9.40206 2.89509 12.318 3.00756 13.676 3.00756C15.034 3.00756 17.9541 2.89926 19.1788 3.38247C19.9953 3.70739 20.6243 4.3364 20.9534 5.15703C21.4408 6.3859 21.3283 9.30185 21.3283 10.6599C21.3283 12.0179 21.4408 14.938 20.9534 16.1627Z" fill="white"/>
</svg>
