<svg width="28" height="22" viewBox="0 0 28 22" fill="none" xmlns="http://www.w3.org/2000/svg">
<path d="M24.6027 5.16886C24.3411 4.18368 23.5702 3.40779 22.5914 3.14448C20.8172 2.66602 13.7031 2.66602 13.7031 2.66602C13.7031 2.66602 6.58901 2.66602 4.81482 3.14448C3.83602 3.40783 3.06512 4.18368 2.80348 5.16886C2.32809 6.95455 2.32809 10.6802 2.32809 10.6802C2.32809 10.6802 2.32809 14.4059 2.80348 16.1916C3.06512 17.1767 3.83602 17.9203 4.81482 18.1836C6.58901 18.6621 13.7031 18.6621 13.7031 18.6621C13.7031 18.6621 20.8172 18.6621 22.5914 18.1836C23.5702 17.9203 24.3411 17.1767 24.6027 16.1916C25.0781 14.4059 25.0781 10.6802 25.0781 10.6802C25.0781 10.6802 25.0781 6.95455 24.6027 5.16886ZM11.3764 14.0628V7.29759L17.3224 10.6803L11.3764 14.0628Z" fill="white"/>
</svg>
