<svg width="24" height="24" viewBox="0 0 24 24" fill="none" xmlns="http://www.w3.org/2000/svg">
<path d="M1 12C1 4 4 1 12 1C20 1 23 4 23 12C23 20 20 23 12 23C4 23 1 20 1 12Z" fill="white"/>
<path d="M18.12 5.87988H5.88V18.1199H18.12V5.87988Z" fill="#F1F5F7"/>
<path opacity="0.05" d="M11.9999 13.31L5.87995 18.12L5.56995 8L11.9999 13.31Z" fill="black"/>
<path opacity="0.15" d="M6 8.7L14.45 18.12H18.15L18.43 8L11.73 11.86L6 8.7Z" fill="url(#paint0_linear_4_57)"/>
<path d="M18.63 5.87988H18.12L12 10.7299L5.87997 5.87988H5.36997C4.96499 5.8825 4.57735 6.04454 4.29099 6.33091C4.00462 6.61727 3.84259 7.00491 3.83997 7.40988V16.5899C3.84259 16.9949 4.00462 17.3825 4.29099 17.6689C4.57735 17.9552 4.96499 18.1173 5.36997 18.1199H5.87997V8.58988L12 13.3099L18.12 8.58988V18.1199H18.63C19.0349 18.1173 19.4226 17.9552 19.7089 17.6689C19.9953 17.3825 20.1573 16.9949 20.16 16.5899V7.40988C20.1573 7.00491 19.9953 6.61727 19.7089 6.33091C19.4226 6.04454 19.0349 5.8825 18.63 5.87988V5.87988Z" fill="#F84437"/>
<defs>
<linearGradient id="paint0_linear_4_57" x1="7.84" y1="8.29" x2="18.74" y2="14.32" gradientUnits="userSpaceOnUse">
<stop offset="0.01"/>
<stop offset="1" stop-color="#E6E6E6"/>
</linearGradient>
</defs>
</svg>
