<svg width="24" height="24" viewBox="0 0 24 24" fill="none" xmlns="http://www.w3.org/2000/svg">
<path d="M23 12C23 19.11 20.67 22.26 14.55 22.88C13.7026 22.9627 12.8515 23.0028 12 23H10.91C3.7 22.71 1 19.66 1 12C1 4 4 1 12 1C20 1 23 4 23 12Z" fill="url(#paint0_linear_4_66)"/>
<path d="M14.55 10.5301V12.8601H17.92L17.39 16.2801H14.55V22.8801C13.7025 22.9628 12.8514 23.0029 12 23.0001H10.91V16.3001H7.82996V12.8601H10.91V10.2901C10.8792 9.66776 10.9731 9.04558 11.186 8.46002C11.399 7.87445 11.7267 7.33731 12.15 6.88008C13.89 5.00008 18 6.00008 18 6.00008V8.86008H16.22C15.777 8.86008 15.3523 9.03602 15.0391 9.34921C14.7259 9.6624 14.55 10.0872 14.55 10.5301V10.5301Z" fill="white"/>
<defs>
<linearGradient id="paint0_linear_4_66" x1="12" y1="23" x2="12" y2="1" gradientUnits="userSpaceOnUse">
<stop stop-color="#0066EF"/>
<stop offset="1" stop-color="#00B2FF"/>
</linearGradient>
</defs>
</svg>
