<svg width="24" height="24" viewBox="0 0 24 24" fill="none" xmlns="http://www.w3.org/2000/svg">
<path d="M1 12C1 4 4 1 12 1C20 1 23 4 23 12C23 20 20 23 12 23C4 23 1 20 1 12Z" fill="white"/>
<path d="M18.12 5.87988H5.88V18.1199H18.12V5.87988Z" fill="#F1F5F7"/>
<path opacity="0.05" d="M12 13.31L5.88001 18.12L5.57001 8L12 13.31Z" fill="black"/>
<path opacity="0.15" d="M6 8.7L14.45 18.12H18.15L18.43 8L11.73 11.86L6 8.7Z" fill="url(#paint0_linear_4_11)"/>
<path d="M18.63 5.87988H18.12L12 10.7299L5.88003 5.87988H5.37003C4.96505 5.8825 4.57741 6.04454 4.29105 6.33091C4.00469 6.61727 3.84265 7.00491 3.84003 7.40988V16.5899C3.84265 16.9949 4.00469 17.3825 4.29105 17.6689C4.57741 17.9552 4.96505 18.1173 5.37003 18.1199H5.88003V8.58988L12 13.3099L18.12 8.58988V18.1199H18.63C19.035 18.1173 19.4226 17.9552 19.709 17.6689C19.9954 17.3825 20.1574 16.9949 20.16 16.5899V7.40988C20.1574 7.00491 19.9954 6.61727 19.709 6.33091C19.4226 6.04454 19.035 5.8825 18.63 5.87988V5.87988Z" fill="#F84437"/>
<defs>
<linearGradient id="paint0_linear_4_11" x1="7.84" y1="8.29" x2="18.74" y2="14.32" gradientUnits="userSpaceOnUse">
<stop offset="0.01"/>
<stop offset="1" stop-color="#E6E6E6"/>
</linearGradient>
</defs>
</svg>
