<svg width="80" height="65" viewBox="0 0 80 65" fill="none" xmlns="http://www.w3.org/2000/svg">
<path d="M40 1.79688C22.875 1.79688 9 15.6719 9 32.7969C9 49.9219 22.875 63.7969 40 63.7969C57.125 63.7969 71 49.9219 71 32.7969C71 15.6719 57.125 1.79688 40 1.79688Z" fill="#E6FFFA"/>
<path d="M44.4133 28.3838C48.1475 32.1218 48.0962 38.1149 44.4358 41.7957C44.4289 41.8032 44.4208 41.8113 44.4133 41.8188L40.2133 46.0188C36.5089 49.7232 30.4821 49.7227 26.7783 46.0188C23.0739 42.315 23.0739 36.2875 26.7783 32.5838L29.0974 30.2647C29.7124 29.6497 30.7715 30.0584 30.8033 30.9275C30.8438 32.0352 31.0424 33.148 31.4089 34.2226C31.533 34.5865 31.4443 34.989 31.1725 35.2608L30.3545 36.0788C28.6029 37.8304 28.548 40.6825 30.2823 42.4513C32.0338 44.2375 34.9127 44.2481 36.6777 42.4832L40.8777 38.2838C42.6396 36.5218 42.6322 33.674 40.8777 31.9194C40.6463 31.6885 40.4133 31.5092 40.2313 31.3838C40.1026 31.2954 39.9963 31.1781 39.9209 31.0414C39.8455 30.9046 39.8031 30.752 39.7972 30.596C39.7724 29.9355 40.0064 29.255 40.5283 28.7331L41.8442 27.4172C42.1892 27.0721 42.7305 27.0297 43.1307 27.309C43.5889 27.6289 44.0181 27.9886 44.4133 28.3838ZM53.2217 19.5749C49.5179 15.871 43.4911 15.8705 39.7867 19.5749L35.5867 23.7749C35.5792 23.7824 35.5711 23.7905 35.5642 23.798C31.9038 27.4788 31.8525 33.4718 35.5867 37.2099C35.9819 37.6051 36.4111 37.9647 36.8693 38.2847C37.2694 38.5639 37.8108 38.5215 38.1558 38.1765L39.4717 36.8605C39.9935 36.3387 40.2275 35.6581 40.2028 34.9977C40.1968 34.8416 40.1544 34.6891 40.079 34.5523C40.0037 34.4155 39.8973 34.2982 39.7686 34.2098C39.5866 34.0845 39.3536 33.9051 39.1223 33.6742C37.3677 31.9197 37.3603 29.0718 39.1223 27.3098L43.3223 23.1105C45.0872 21.3455 47.966 21.3562 49.7176 23.1423C51.452 24.9111 51.3971 27.7632 49.6454 29.5148L48.8275 30.3328C48.5556 30.6047 48.4669 31.0072 48.591 31.371C48.9575 32.4457 49.1562 33.5585 49.1967 34.6661C49.2285 35.5352 50.2875 35.944 50.9025 35.329L53.2217 33.0098C56.9261 29.3062 56.9261 23.2787 53.2217 19.5749Z" fill="#38B2AC"/>
</svg>
