<svg width="80" height="65" viewBox="0 0 80 65" fill="none" xmlns="http://www.w3.org/2000/svg">
<path d="M40 1.79688C22.875 1.79688 9 15.6719 9 32.7969C9 49.9219 22.875 63.7969 40 63.7969C57.125 63.7969 71 49.9219 71 32.7969C71 15.6719 57.125 1.79688 40 1.79688Z" fill="#E6FFFA"/>
<path d="M55 40.7969H28V21.7969C28 21.2444 27.5525 20.7969 27 20.7969H25C24.4475 20.7969 24 21.2444 24 21.7969V42.7969C24 43.9013 24.8956 44.7969 26 44.7969H55C55.5525 44.7969 56 44.3494 56 43.7969V41.7969C56 41.2444 55.5525 40.7969 55 40.7969ZM53 22.7969H45.6213C44.285 22.7969 43.6156 24.4125 44.5606 25.3575L46.5856 27.3825L42 31.9688L37.4144 27.3831C36.6331 26.6019 35.3669 26.6019 34.5863 27.3831L30.2931 31.6763C29.9025 32.0669 29.9025 32.7 30.2931 33.0906L31.7069 34.5044C32.0975 34.895 32.7306 34.895 33.1213 34.5044L36 31.625L40.5856 36.2106C41.3669 36.9919 42.6331 36.9919 43.4137 36.2106L49.4137 30.2106L51.4387 32.2356C52.3837 33.1806 53.9994 32.5113 53.9994 31.175V23.7969C54 23.2444 53.5525 22.7969 53 22.7969Z" fill="#38B2AC"/>
</svg>
