<svg width="81" height="65" viewBox="0 0 81 65" fill="none" xmlns="http://www.w3.org/2000/svg">
<path d="M40.5 1.79688C23.375 1.79688 9.5 15.6719 9.5 32.7969C9.5 49.9219 23.375 63.7969 40.5 63.7969C57.625 63.7969 71.5 49.9219 71.5 32.7969C71.5 15.6719 57.625 1.79688 40.5 1.79688Z" fill="#E6FFFA"/>
<path d="M26.5 30.7969H38.5V18.7969H26.5V30.7969ZM30.5 22.7969H34.5V26.7969H30.5V22.7969ZM42.5 18.7969V30.7969H54.5V18.7969H42.5ZM50.5 26.7969H46.5V22.7969H50.5V26.7969ZM26.5 46.7969H38.5V34.7969H26.5V46.7969ZM30.5 38.7969H34.5V42.7969H30.5V38.7969ZM52.5 34.7969H54.5V42.7969H48.5V40.7969H46.5V46.7969H42.5V34.7969H48.5V36.7969H52.5V34.7969ZM52.5 44.7969H54.5V46.7969H52.5V44.7969ZM48.5 44.7969H50.5V46.7969H48.5V44.7969Z" fill="#38B2AC"/>
</svg>
