<svg width="155" height="205" viewBox="0 0 155 205" fill="none" xmlns="http://www.w3.org/2000/svg">
<g clip-path="url(#clip0_4_292)">
<path d="M124.153 6.5282H31.1909C14.4263 6.5282 0.835938 20.1186 0.835938 36.8832V167.789C0.835938 184.554 14.4263 198.144 31.1909 198.144H124.153C140.918 198.144 154.508 184.554 154.508 167.789V36.8832C154.508 20.1186 140.918 6.5282 124.153 6.5282Z" fill="#E9C0E9"/>
<path fill-rule="evenodd" clip-rule="evenodd" d="M66.4027 49.2054C69.3718 46.5664 73.4232 45.0647 77.672 45.0647C81.9217 45.0647 85.9721 46.5664 88.9412 49.2044C91.9046 51.8396 93.54 55.3816 93.54 59.0432V63.9351C92.7989 63.4509 91.9324 63.1937 91.0471 63.1952H89.2334C86.5318 63.1952 84.4724 65.5173 84.4724 68.2151V74.0443C84.4724 76.7411 86.5318 79.0633 89.2334 79.0633H91.0471C93.7487 79.0633 95.8072 76.7411 95.8072 74.0443V68.2151C95.8072 67.9268 95.7834 67.6431 95.7389 67.3662C95.7839 67.2414 95.807 67.1098 95.8072 66.9772V59.0432C95.8072 54.6892 93.8597 50.5438 90.4476 47.5102C87.0384 44.4804 82.4415 42.7976 77.672 42.7976C72.9024 42.7976 68.3056 44.4804 64.8973 47.5102C61.4852 50.5438 59.5377 54.6892 59.5377 59.0432V66.9772C59.5377 67.1138 59.5614 67.2457 59.606 67.3662C59.5614 67.6431 59.5377 67.9268 59.5377 68.2151V74.0443C59.5377 76.7411 61.5962 79.0633 64.2978 79.0633H66.1115C68.8131 79.0633 70.8715 76.7411 70.8715 74.0443V68.2151C70.8715 65.5173 68.8131 63.1952 66.1115 63.1952H64.2968C63.4112 63.1935 62.5444 63.4507 61.803 63.9351V59.0423C61.803 55.3807 63.4383 51.8386 66.4027 49.2035V49.2054ZM64.2978 65.4623C62.9934 65.4623 61.8039 66.6196 61.8039 68.2151V74.0443C61.8039 75.6388 62.9934 76.7961 64.2987 76.7961H66.1105C67.4158 76.7961 68.6053 75.6388 68.6053 74.0443V68.2151C68.6053 66.6196 67.4158 65.4623 66.1105 65.4623H64.2978ZM89.2334 65.4623C87.9282 65.4623 86.7396 66.6196 86.7396 68.2151V74.0443C86.7396 75.6388 87.9282 76.7961 89.2334 76.7961H91.0471C92.3514 76.7961 93.54 75.6388 93.54 74.0443V68.2151C93.54 66.6196 92.3514 65.4623 91.0471 65.4623H89.2334Z" fill="#061492"/>
<path d="M58.4354 123.893C63.3624 123.893 66.7783 121.113 66.7783 117.153C66.7783 114.07 65.2662 112.015 62.5162 111.26C64.4808 110.383 65.6902 108.448 65.6902 106.03C65.6902 102.464 62.6974 99.9248 58.4354 99.9248C54.235 99.9248 51.302 102.071 50.9102 105.577H53.4183C53.8414 103.492 55.8059 102.192 58.4363 102.192C61.2157 102.192 63.1508 103.764 63.1508 106.03C63.1508 108.539 60.6722 110.292 57.1368 110.292V112.438C61.7308 112.438 64.2692 114.131 64.2692 117.153C64.2692 119.752 61.8816 121.596 58.4354 121.596C55.3525 121.596 53.147 120.055 52.723 117.546H50.1542C50.4862 121.414 53.6602 123.893 58.4354 123.893ZM69.8716 118.422H80.2378V123.409H82.7165V118.422H86.3136V116.035H82.7165V109.234H80.2378V116.035H72.6519L79.6336 100.378H76.8533L69.8716 116.336V118.422ZM97.0573 123.863C101.833 123.863 105.188 120.478 105.188 115.642C105.188 110.776 102.135 107.36 97.783 107.36C95.4865 107.36 93.4612 108.358 92.2527 109.899L93.4916 102.766H103.948V100.378H91.4967L89.5321 113.013L91.9198 113.436C93.0676 110.927 94.8215 109.657 97.1788 109.657C100.534 109.657 102.68 112.106 102.68 115.642C102.68 119.118 100.382 121.596 97.0573 121.596C93.9744 121.596 91.8287 119.45 91.8287 116.427H89.4107C89.5321 120.81 92.6748 123.863 97.0573 123.863ZM60.2444 157.317H62.4337V153.781H64.7321C66.9632 153.781 68.4724 152.407 68.4724 150.367C68.4724 148.34 66.9632 146.953 64.7321 146.953H60.2444V157.317ZM62.4337 151.863V148.87H64.6914C65.6305 148.87 66.2689 149.469 66.2689 150.367C66.2689 151.251 65.6305 151.863 64.6914 151.863H62.4337ZM69.1782 157.317H71.2594V146.953H69.1791L69.1782 157.317ZM75.3763 157.521C76.4511 157.521 77.3351 157.086 77.9328 156.338V157.317H80.014V153.073C80.014 150.897 78.6271 149.605 76.3828 149.605C74.274 149.605 72.8464 150.829 72.7648 152.366H74.9134C74.995 151.7 75.5262 151.305 76.3145 151.305C77.3351 151.305 77.892 151.836 77.9328 152.829H75.7026C73.7988 152.829 72.6007 153.685 72.6007 155.196C72.6007 156.623 73.6764 157.521 75.3763 157.521ZM74.6962 154.964C74.6962 154.434 75.1041 154.134 76.1921 154.134H77.8787C77.7894 154.603 77.5397 155.027 77.1725 155.332C76.8052 155.637 76.3433 155.805 75.8658 155.807C75.1581 155.807 74.6962 155.481 74.6962 154.964ZM82.2925 160.554H84.2779L88.7391 149.809H86.6854L84.5511 155.222L82.6055 149.809H80.5518L83.557 157.589L82.2925 160.554ZM92.4301 157.521C94.4563 157.521 95.7758 156.623 95.7758 155.25C95.7758 154.052 94.96 153.332 93.4498 152.992L92.1977 152.692C91.3961 152.502 91.1239 152.299 91.1239 151.958C91.1239 151.55 91.5726 151.265 92.2252 151.265C93.0277 151.265 93.5855 151.726 93.5589 152.284H95.5984C95.6667 150.788 94.2116 149.605 92.3068 149.605C90.3897 149.605 89.111 150.53 89.111 151.904C89.111 153.087 89.9135 153.849 91.5318 154.162L92.7156 154.393C93.6813 154.597 93.8169 154.842 93.8169 155.168C93.8169 155.603 93.3142 155.916 92.525 155.916C91.6266 155.916 91.0148 155.413 91.0698 154.733H88.9886C88.8254 156.351 90.2683 157.521 92.4301 157.521Z" fill="#061492"/>
</g>
<defs>
<clipPath id="clip0_4_292">
<rect width="153.672" height="203.969" fill="white" transform="translate(0.835938 0.351562)"/>
</clipPath>
</defs>
</svg>
