<svg width="48" height="49" viewBox="0 0 48 49" fill="none" xmlns="http://www.w3.org/2000/svg">
<g clip-path="url(#clip0_4_327)">
<path fill-rule="evenodd" clip-rule="evenodd" d="M41.9999 10.4624C43.9199 10.9642 45.4254 12.4914 45.9272 14.3896C46.8872 17.8805 46.8872 25.1678 46.8872 25.1678C46.8872 25.1678 46.8872 32.4333 45.949 35.9242C45.6932 36.8701 45.194 37.7325 44.5011 38.4254C43.8082 39.1182 42.9459 39.6175 41.9999 39.8733C38.509 40.8114 24.5454 40.8114 24.5454 40.8114C24.5454 40.8114 10.5599 40.8114 7.06904 39.8733C6.12572 39.6194 5.2651 39.1234 4.57243 38.4346C3.87975 37.7457 3.37906 36.8879 3.11994 35.946C2.18176 32.4333 2.18176 25.146 2.18176 25.146C2.18176 25.146 2.18176 17.8805 3.11994 14.3896C3.62176 12.4696 5.14904 10.9424 7.04722 10.4405C10.5599 9.52417 24.5454 9.52417 24.5454 9.52417C24.5454 9.52417 38.5309 9.52417 41.9999 10.4624ZM31.6799 25.1678L20.0509 31.866V18.4696L31.6799 25.1678Z" fill="#780016"/>
</g>
<defs>
<clipPath id="clip0_4_327">
<rect width="48" height="48" fill="white" transform="translate(0 0.796875)"/>
</clipPath>
</defs>
</svg>
